<svg width="554" height="575" viewBox="0 0 554 575" fill="none" xmlns="http://www.w3.org/2000/svg">
<g clip-path="url(#clip0_1_6)">
<path d="M127.003 204.621C127.003 204.621 155.959 226.227 173.674 224.994C191.388 223.762 223.492 229.861 242.098 219.269C260.705 208.677 297.399 178.052 304.407 180.858C311.415 183.665 327.102 179.253 325.674 184.768C324.247 190.283 306.143 222.626 302.688 226.552C299.232 230.477 295.355 256.624 299.086 263.226C302.817 269.828 297.237 279.657 294.496 281.685C291.754 283.713 228.942 291.969 210.66 289.795C192.378 287.622 117.172 278.198 113.798 276.803C110.424 275.408 127.003 204.621 127.003 204.621Z" fill="#F8DB8E"/>
<path d="M110.537 288.887C110.537 288.887 103.026 334.239 107.487 348.351C111.949 362.463 111.543 363.663 126.97 367.037C142.397 370.411 217.862 381.425 223.832 380.873C229.802 380.322 293.182 377.078 293.182 377.078V368.773L291.511 359.997C291.511 359.997 265.961 366.486 260.186 363.988C254.411 361.49 252.48 358.943 254.622 352.844C256.763 346.745 265.539 332.001 265.539 332.001C265.539 332.001 236.388 330.184 237.572 324.929C238.756 319.673 249.95 311.304 253.729 309.454C257.509 307.605 257.98 300.468 257.98 300.468C257.98 300.468 125.851 299.884 110.553 288.887H110.537Z" fill="#F8DB8E"/>
<path d="M120.919 376.153C120.919 376.153 247.565 405.804 307.457 393.931C307.457 393.931 304.764 443.192 304.553 443.225C304.342 443.257 166.065 440.435 166.065 440.435C166.065 440.435 115.371 383.939 120.936 376.153H120.919Z" fill="#F8DB8E"/>
<path d="M195.135 456.363C195.135 456.363 272.904 466.144 311.253 451.27C311.253 451.27 330.508 487.718 326.112 488.156C321.716 488.593 217.603 488.237 208.356 476.315C199.11 464.392 195.152 456.347 195.152 456.347L195.135 456.363Z" fill="#F8DB8E"/>
<path d="M291.511 375.715C291.511 375.715 182.125 386.112 114.447 365.399C114.447 365.399 113.554 377.84 123.272 378.327C132.989 378.813 252.529 404.75 300.855 392.552C300.855 392.552 311.999 387.329 314.773 383.485C317.547 379.64 310.02 376.591 303.71 380.614C297.399 384.636 291.511 375.731 291.511 375.731V375.715Z" fill="#D3B965"/>
<path d="M174.614 443.225C174.614 443.225 285.427 449.016 307.457 442.69C307.457 442.69 312.956 449.551 307.522 452.584C302.087 455.617 203.473 464.23 189.295 455.082C175.117 445.934 172.457 443.225 172.457 443.225" fill="#D3B965"/>
<path d="M110.294 276.04C110.294 276.04 216.467 296.527 279.815 286.454L268.735 299.625C268.735 299.625 134.724 302.707 108.25 287.832L110.31 276.04H110.294Z" fill="#D3B965"/>
<path d="M131.237 193.835C131.237 193.835 125.867 201.507 129.728 205.335C133.589 209.163 149.892 215.051 156.283 219.301C162.675 223.551 201.981 222.35 216.954 222.805C231.927 223.259 276.846 196.819 282.848 189.974C288.85 183.129 316.444 177.176 322.543 179.95C328.643 182.724 331.612 175.863 326.81 171.759C322.008 167.655 302.023 162.789 295.534 168.255C289.045 173.721 259.764 206.827 234.101 210.169C208.437 213.51 195.59 218.214 187.04 214.792C178.491 211.369 138.796 191.304 131.269 193.851L131.237 193.835Z" stroke="black" stroke-miterlimit="10"/>
<path d="M192.475 210.639C194.113 211.969 195.914 213.04 198.007 213.494C200.099 213.948 202.224 213.964 204.317 213.429C205.29 213.186 206.231 212.423 206.734 211.564C207.237 210.704 207.464 209.406 207.14 208.433C206.815 207.46 206.215 206.503 205.274 206.016C204.333 205.53 203.23 205.335 202.143 205.611C201.819 205.692 201.494 205.757 201.17 205.806L202.241 205.66C201.446 205.773 200.667 205.773 199.872 205.66L200.943 205.806C200.116 205.692 199.304 205.481 198.526 205.157L199.499 205.562C198.802 205.254 198.169 204.881 197.569 204.427L198.396 205.059C198.396 205.059 198.266 204.962 198.201 204.897C197.828 204.508 197.406 204.216 196.904 204.054C196.417 203.794 195.898 203.681 195.346 203.697C194.357 203.697 193.156 204.135 192.475 204.881C191.794 205.627 191.242 206.665 191.291 207.752C191.339 208.758 191.664 209.942 192.475 210.623V210.639Z" fill="black"/>
<path d="M325.755 177.566C324.879 176.609 313.962 164.427 307.554 166.341C301.147 168.255 283.821 180.274 270.665 188.125C257.509 195.976 234.62 218.458 213.985 216.138C193.351 213.818 137.19 188.304 131.253 193.835C125.315 199.366 129.485 199.171 133.021 203.243C136.557 207.314 148.74 221.977 187.251 222.545C225.763 223.113 244.061 212.699 252.497 208.79C260.932 204.881 288.834 180.858 302.688 181.345C316.541 181.832 325.772 177.566 325.772 177.566H325.755Z" fill="#D3B965"/>
<path d="M91.4763 152.602C91.4763 152.602 104.259 130.705 125.315 135.1C146.372 139.496 170.948 143.632 190.966 147.98C210.984 152.327 214.294 157.371 231.473 151.045C248.652 144.719 265.312 130.364 270.665 132.57C276.019 134.776 275.694 143.308 276.44 154.03C277.187 164.751 281.307 176.041 268.881 180.291C256.455 184.54 159.56 201.961 144.036 196.949C128.511 191.937 117.659 193.3 118.34 188.125C119.021 182.951 91.4925 152.602 91.4925 152.602H91.4763Z" fill="#F8DB8E"/>
<path d="M120.141 11.695C120.141 11.695 119.8 17.7939 120.141 24.201C120.481 30.608 117.35 40.6647 115.988 47.0556C114.625 53.4465 119.427 66.1471 114.722 69.2615C110.018 72.3758 79.2935 82.1405 77.2657 89.2938C75.238 96.447 77.3631 127.915 81.8403 137.469C86.3176 147.022 88.8969 152.099 92.8065 148.969C96.716 145.838 114.95 137.242 128.252 137.793C141.554 138.345 161.685 137.193 176.318 142.594C190.95 147.996 207.302 152.992 216.743 152.878C226.184 152.765 251.069 145.822 254.93 142.286C258.791 138.75 271.038 128.823 274.38 133.478C277.722 138.134 275.791 153.202 279.636 158.653C283.481 164.103 286.174 165.53 288.769 158.653C291.365 151.775 312.129 119.821 313.216 112.927C314.303 106.033 311.156 89.6182 311.156 89.6182C311.156 89.6182 311.967 71.6621 314.27 66.6337C316.574 61.6054 315.179 51.1918 314.27 42.8221C313.362 34.4523 314.059 14.5984 310.653 11.695C307.246 8.79149 297.61 0.551484 291.186 4.20109C284.762 7.8507 265.198 11.2083 260.705 10.4946C256.211 9.78094 247.143 7.49385 231.473 7.99669C215.802 8.49952 201.673 15.4094 194.941 14.5173C188.208 13.6252 164.248 11.3543 148.481 9.68362C132.713 8.01291 120.222 10.1053 120.157 11.7112L120.141 11.695Z" fill="#6487C4"/>
<path d="M234.409 47.0556C234.409 47.0556 194.13 68.3531 192.134 73.7059C190.139 79.0586 192.572 80.259 202.257 80.632C211.941 81.0051 246.932 82.5947 250.453 80.9889C253.973 79.3831 237.621 41.9786 234.409 47.0394V47.0556Z" fill="#F4F6FC"/>
<path d="M207.237 59.8536C207.237 59.8536 209.362 71.727 211.925 73.7059C214.488 75.6848 213.044 78.2801 215.462 75.1495C217.879 72.0189 221.22 64.7197 220.571 59.8536C219.923 54.9874 219.225 55.8796 207.237 59.8536Z" fill="#7B5C5C"/>
<path d="M132.794 51.3703C132.794 51.3703 128.722 51.9055 127.668 54.4684C126.613 57.0312 122.639 69.4885 126.386 71.1755C130.134 72.8624 140.289 71.1106 143.614 72.0838C146.94 73.057 147.913 74.6304 148.497 72.0838C149.081 69.5372 138.91 51.792 132.81 51.354L132.794 51.3703Z" fill="#F4F6FC"/>
<path d="M136.639 54.8901C136.639 54.8901 134.773 59.3345 136.071 65.1901C137.368 71.0457 136.833 72.8624 140.11 70.8186C143.387 68.7748 148.837 66.6824 146.469 63.6816C144.101 60.6808 136.639 54.8901 136.639 54.8901Z" fill="#7B5C5C"/>
<path d="M86.415 175.295C86.415 175.295 77.1846 186.13 77.2657 191.694C77.3468 197.257 79.4557 207.541 82.2946 209.001C85.1334 210.461 95.6778 201.686 95.6778 201.686C95.6778 201.686 88.3454 195.814 91.4763 191.694C94.6071 187.574 99.198 175.587 86.415 175.295Z" fill="#7B5C5C"/>
<path d="M323.809 83.276C319.153 81.9621 311.204 75.993 312.08 73.7059C312.956 71.4188 316.152 53.6411 322.527 56.6906C328.903 59.74 365.175 76.4147 376.255 80.632C387.334 84.8494 392.915 89.0991 392.915 89.0991C392.915 89.0991 396.938 118.231 395.332 121.962C393.726 125.693 370.772 138.377 365.386 138.215C360 138.053 358.248 135.052 356.123 130.51C353.998 125.968 342.935 88.6612 323.793 83.276H323.809Z" fill="#7B5C5C"/>
<path d="M448.767 121.962C448.767 121.962 439.537 129.699 441.581 134.776C443.625 139.853 453.861 144.638 454.672 152.602C455.483 160.567 455.678 173.884 450.162 179.934C444.647 185.984 432.172 198.263 431.637 200.745C431.102 203.226 429.901 207.152 430.647 208.482C431.394 209.812 441.338 244.07 441.338 244.07L417.345 298.554C417.345 298.554 426.786 319.998 434.833 329.292C442.879 338.586 464.746 368.383 466.79 383.485C468.834 398.586 471.786 410.557 471.786 410.557L481.309 395.812C481.309 395.812 490.053 353.801 492.097 330.184C494.141 306.567 495.033 272.439 495.033 272.439C495.033 272.439 481.276 199.609 475.761 194.354C470.245 189.098 481.066 183.502 481.066 183.502L483.077 170.137C483.077 170.137 482.477 158.134 448.767 121.962Z" fill="#7B5C5C"/>
<path d="M353.884 199.155C353.884 199.155 325.236 213.17 321.7 230.331C318.163 247.492 313.216 263.567 313.216 263.567L290.424 287.232L274.38 298.538C274.38 298.538 270.925 316.965 273.196 324.118C275.467 331.271 286.822 345.042 286.822 345.042L303.174 354.547C303.174 354.547 327.199 352.666 328.919 351.66C330.638 350.654 350.381 332.001 350.381 332.001L362.417 321.295C362.417 321.295 380.554 314.742 383.1 307.605C385.647 300.468 396.759 289.779 396.759 289.779L406.476 257.792L404.27 216.122C404.27 216.122 389.459 198.198 353.868 199.139L353.884 199.155Z" fill="#6487C4"/>
<path d="M358.573 326.567L344.962 337.127L323.809 353.152L318.131 365.399L315.357 372.439L317.677 374.353L349.667 351.255L369.02 344.231C369.02 344.231 376.53 323.291 358.573 326.583V326.567Z" fill="#F8DB8E"/>
<path d="M344.962 353.396C344.962 353.396 310.669 384.685 307.457 396.834C304.245 408.983 302.428 415.374 303.385 420.97C304.342 426.566 318.18 464.766 319.559 467.896C320.937 471.027 326.81 495.341 326.81 495.341C326.81 495.341 343.908 513.589 344.962 518.65C346.017 523.711 354.225 527.928 354.225 527.928L362.434 523.808C362.434 523.808 381.932 513.103 383.733 512.989C385.534 512.876 406.493 526.647 406.493 526.647L418.335 535.795L429.187 523.824L447.161 512.665C447.161 512.665 443.268 429.94 441.451 417.337C439.634 404.734 408.358 323.274 344.962 353.412V353.396Z" fill="#6487C4"/>
<path d="M104.081 346.324C104.081 346.324 77.0062 358.83 76.0653 367.54C75.1244 376.25 59.9406 379.9 64.2232 413.476C68.5058 447.053 85.393 476.574 90.9572 480.645C96.5213 484.717 116.604 501.181 121.325 505.674C126.045 510.167 131.821 500.11 135.665 500.97C139.51 501.829 148.984 499.688 153.769 506.842C158.555 513.995 161.556 521.716 165.822 522.251C170.088 522.786 176.301 515.309 177.583 513.8C178.865 512.292 198.688 497.093 200.862 496.25C203.035 495.406 205.842 468.886 205.842 468.886L192.134 456.363C192.134 456.363 151.482 431.465 149.989 425.69C148.497 419.916 100.918 358.748 104.065 346.34L104.081 346.324Z" fill="#6487C4"/>
<path d="M462.945 430.978C463.838 429.843 492.389 445.739 519.415 448.334C546.44 450.929 550.707 449.405 549.296 456.493C547.884 463.581 456.408 496.282 451.217 496.282C446.026 496.282 445.685 447.28 445.685 447.28L462.945 430.994V430.978Z" fill="#6487C4"/>
<path d="M106.076 231.142C106.076 231.142 101.583 211.694 96.5862 217.695C91.5898 223.697 88.5563 220.063 86.2203 222.561C83.8843 225.059 68.7816 234.824 67.8894 242.01C66.9972 249.195 63.1525 261.669 63.1525 261.669C63.1525 261.669 47.19 277.841 47.6767 280.728C48.1633 283.615 49.088 289.292 47.6767 289.99C46.2653 290.687 34.0663 293.315 34.0663 295.537C34.0663 297.759 36.3212 302.642 35.867 307.394C35.4128 312.147 34.7477 322.771 34.7477 322.771C34.7477 322.771 43.686 330.914 44.3349 331.336C44.9838 331.758 56.2906 343.712 56.2906 343.712C56.2906 343.712 64.5314 353.607 66.5916 353.379C68.6518 353.152 74.8324 353.185 76.4871 353.379C78.1417 353.574 90.5354 335.196 90.5354 334.856C90.5354 334.515 102.734 326.535 102.734 326.535C102.734 326.535 111.673 274.597 111.267 273.786C110.862 272.975 108.234 252.926 108.234 252.926L106.303 241.993C106.303 241.993 109.272 227.476 106.06 231.109L106.076 231.142Z" fill="#6487C4"/>
<path d="M93.9744 193.835C93.9744 193.835 95.256 178.377 89.3674 172.943C83.4788 167.509 71.7827 169.05 69.9658 168.077C68.1489 167.103 31.6655 136.804 31.6655 136.804C31.6655 136.804 28.5184 109.115 43.8158 103.195C59.1132 97.2742 72.5451 92.7163 72.5451 92.7163C72.5451 92.7163 75.5948 106.001 74.4593 112.732C73.3238 119.464 82.8299 141.426 84.3385 144.249C85.8472 147.071 93.5202 159.172 93.5202 159.172L104.081 173.04C104.081 173.04 112.289 174.743 111.283 180.648C110.278 186.552 98.7762 196.576 91.9791 194.273" fill="#BBBBC3"/>
<path d="M404.286 57.3718C402.356 61.8811 400.75 76.512 398.917 81.7026C397.084 86.8931 394.991 116.22 395.348 117.534C395.705 118.847 398.949 130.737 399.793 135.1C400.636 139.464 398.171 134.662 394.164 135.1C390.157 135.538 382.273 142.108 382.289 145.4C382.306 148.693 385.031 163.989 390.027 166.341C395.024 168.693 397.798 178.685 401.74 181.459C405.682 184.232 420.525 195.895 422.358 197.841C424.191 199.788 427.37 202.756 429.885 200.745C432.399 198.733 437.801 191.353 437.818 190.396C437.834 189.439 437.639 169.245 437.639 169.245L443.187 160.112L439.391 142.432C439.391 142.432 438.401 133.186 443.593 127.574C448.784 121.962 453.245 112.651 454.688 106.925C456.132 101.2 459.02 75.409 460.301 73.4788C461.583 71.5485 463.594 58.3613 448.946 56.5284C434.297 54.6954 414.425 47.4124 401.74 58.5884" fill="#BBBBC3"/>
<path d="M444.095 144.671C442.749 144.8 444.89 151.856 444.89 154.76C444.89 157.663 439.764 167.493 440.072 172.683C440.381 177.874 440.072 193.218 444.89 188.125C449.708 183.032 456.197 176.836 457.284 171.742C458.371 166.649 449.546 144.135 444.095 144.671Z" fill="black"/>
<path d="M394.164 135.1C394.164 135.1 382.565 137.631 382.289 145.4C382.014 153.17 391.244 164.751 386.264 165.092C381.284 165.433 376.66 160.794 376.044 160.112C375.427 159.431 362.661 140.615 364.04 139.415C365.418 138.215 376.336 126.033 382.192 126.958C388.048 127.882 391.958 121.264 395.364 125.903C398.771 130.542 399.582 131.775 394.164 135.1Z" fill="black"/>
<path d="M90.9734 480.662C90.9734 480.662 51.6673 504.83 46.3789 511.318C41.0905 517.807 34.699 527.214 40.8634 527.49C47.0278 527.766 119.768 519.348 119.768 519.348C119.768 519.348 109.969 529.064 116.637 533.573C123.304 538.082 123.304 537.401 134.692 534.449C146.08 531.497 157.143 522.397 161.507 522.316C165.871 522.235 175.069 510.588 177.632 513.8C180.195 517.012 200.18 523.127 205.891 523.435C211.601 523.743 220.718 525.236 219.76 518.958C218.803 512.681 221.821 497.482 205.501 498.261C189.182 499.039 181.217 510.54 181.217 510.54C181.217 510.54 163.94 523.403 161.507 519.299C159.074 515.195 152.52 500.548 146.94 502.04C141.359 503.533 128.982 505.917 127.376 506.193C125.77 506.468 93.8771 485.333 90.9896 480.629L90.9734 480.662Z" fill="#BBBBC3"/>
<path d="M335.57 516.525C335.57 516.525 316.882 527.442 314.303 532.973C311.723 538.504 303.888 551.367 315.357 551.026C326.826 550.685 353.771 542.997 356.967 548.139C360.162 553.281 362.693 559.996 370.577 565.3C378.461 570.604 389.265 568.074 395.478 567.393C401.691 566.711 417.637 546.371 424.013 547.247C430.388 548.123 460.772 556.541 466.011 555.308C471.251 554.076 473.49 552.356 472.727 549.631C471.965 546.906 451.996 520.499 447.713 518.65C443.43 516.801 436.747 519.153 431.669 522.251C426.592 525.349 423.591 535.454 420.281 533.605C416.972 531.756 411.197 526.095 408.942 523.792C406.687 521.489 391.666 509.275 383.701 512.973C375.736 516.671 364.786 523.322 361.444 526.777C358.102 530.231 352.457 529.161 349.569 526.777C346.682 524.392 335.554 516.525 335.554 516.525H335.57Z" fill="#BBBBC3"/>
<path d="M24.0411 300.225C20.8129 300.339 10.7715 304.832 9.05191 308.692C7.33237 312.553 7.18637 316.267 11.031 317.922C14.8756 319.576 20.5858 323.826 20.5858 324.604C20.5858 325.383 18.5418 330.038 17.7469 334.239C16.9521 338.44 14.7459 342.528 15.9625 346.34C17.1792 350.152 17.7632 351.806 22.7271 351.465C27.6911 351.125 42.0638 342.706 43.4751 344.215C44.8865 345.723 49.0393 352.325 47.5469 355.099C46.0545 357.873 46.8007 365.302 47.8713 367.508C48.942 369.714 53.5166 366.177 56.7448 365.399C59.973 364.62 65.3263 359.089 66.6078 356.997C67.8894 354.904 71.9773 352.114 66.6078 349.973C61.2383 347.832 56.7773 345.902 55.2524 344.215C53.7275 342.528 50.2073 339.592 50.0613 337.191C49.9153 334.791 46.9142 329.665 43.9131 327.524C40.9121 325.383 38.9492 324.539 36.8565 323.68C34.7639 322.82 34.7152 321.75 34.0826 317.694C33.4499 313.639 33.7257 300.598 34.0826 299.187C34.4395 297.776 24.0573 300.241 24.0573 300.241L24.0411 300.225Z" fill="#BBBBC3"/>
<path d="M270.016 302.236C270.016 302.236 246.592 314.629 245.635 317.402C244.677 320.176 237.864 318.862 239.422 321.36C240.979 323.858 244.515 326.421 248.522 326.908C252.529 327.394 262.165 327.232 263.122 329.957C264.079 332.682 263.609 334.288 262.165 338.294C260.721 342.301 256.876 353.931 256.714 354.531C256.552 355.131 254.313 357.775 256.714 360.273C259.115 362.771 256.39 367.005 268.264 363.809C280.139 360.614 293.198 360.273 293.198 360.273C293.198 360.273 294.755 368.74 294.512 370.346C294.268 371.952 301.763 382.917 303.142 383.468C304.521 384.02 306.289 373.347 309.339 370.346C312.388 367.345 316.217 366.842 318.163 362.836C320.11 358.83 321.635 353.574 319.429 353.071C317.223 352.568 310.961 355.456 305.51 355.31C300.06 355.164 296.199 355.148 292.841 353.071C289.483 350.995 288.72 349.551 286.855 345.058C284.989 340.565 284.989 336.559 280.966 332.861C276.943 329.162 276.278 326.956 275.483 326.226C274.688 325.496 273.261 316.819 273.747 315.067C274.234 313.315 271.817 302.382 271.817 302.382L270.065 302.269L270.016 302.236Z" fill="#BBBBC3"/>
<path d="M114.447 179.934C113.068 180.761 101.777 192.586 99.0519 194.646C96.3266 196.706 82.6514 215.749 81.8403 218.96C81.0292 222.172 81.4834 225.189 86.2203 222.577C90.9571 219.966 98.176 217.354 99.0682 220.874C99.9604 224.394 106.514 231.904 106.822 239.301C107.131 246.697 110.537 260.014 110.537 260.014C110.537 260.014 118.178 255.197 118.21 253.283C118.243 251.369 125.105 219.771 124.796 217.711C124.488 215.651 131.269 202.399 130.052 197.857C128.836 193.316 126.273 185.27 122.736 183.502C119.2 181.734 114.447 179.934 114.447 179.934Z" fill="#F4F6FC"/>
<path d="M312.015 78.3125C312.015 78.3125 311.156 114.776 313.2 121.151C315.244 127.525 320.175 152.294 322.527 160.129C324.879 167.963 332.228 177.598 323.793 191.515C315.357 205.432 289.418 236.689 292.549 246.6C295.68 256.511 299.719 268.368 303.142 268.368C306.565 268.368 318.439 262.545 318.115 259.512C317.79 256.478 323.452 221.458 329.162 216.543C334.872 211.629 353.884 194.24 365.386 197.841C376.887 201.442 397.068 206.389 401.723 213.624C406.379 220.858 407.58 248.709 406.347 255.489C405.114 262.269 391.941 295.148 390.011 295.553C388.081 295.959 380.391 315.424 377.812 317.402C375.233 319.381 366.538 331.352 370.561 337.127C374.584 342.901 385.907 346.145 395.445 352.536C404.984 358.927 418.724 375.618 422.131 378.619C425.537 381.619 441.143 414.985 442.425 419.478C443.706 423.971 445.929 444.101 449.319 442.69C452.709 441.278 468.558 427.686 467.909 422.722C467.261 417.759 466.011 388.773 464.892 381.749C463.773 374.726 450.098 349.065 446.367 344.264C442.635 339.462 428.003 324.799 427.403 322.723C426.803 320.647 422.926 314.239 422.131 310.622C421.336 307.005 419.633 293.299 419.633 293.299C419.633 293.299 433.811 258.246 436.406 250.72C439.002 243.194 435.157 219.804 434.833 216.106C434.508 212.407 415.042 189.731 408.634 186.519C402.226 183.308 381.608 168.498 381.754 167.768C381.9 167.039 350.656 116.609 343.989 104.833C337.322 93.0569 323.874 72.9111 312.032 78.2801L312.015 78.3125Z" fill="#F4F6FC"/>
<path d="M323.111 256.997C320.305 244.362 324.198 231.223 331.32 220.696C335.067 215.165 339.739 210.72 345.838 207.866C351.938 205.011 358.524 203.859 364.98 203.389C377.212 202.497 391.504 205.4 398.057 216.917C401.253 222.545 401.869 229.244 402.21 235.586C402.583 242.821 402.875 250.104 402.453 257.338C401.999 265.027 400.539 272.764 397.1 279.706C393.661 286.648 388.519 292.244 382.776 297.597C378.948 301.166 384.69 306.892 388.519 303.339C394.277 297.97 399.582 292.326 403.329 285.335C407.077 278.344 409.121 270.752 410.078 262.885C411.035 255.018 410.808 246.503 410.451 238.328C410.126 230.769 409.624 223.08 406.622 216.041C400.474 201.604 384.788 195.181 369.912 195.116C355.036 195.051 338.1 199.35 328.059 211.612C317.288 224.767 311.545 242.285 315.292 259.155C316.428 264.248 324.247 262.091 323.111 256.997Z" fill="black"/>
<path d="M300.303 285.983C300.465 283.599 301.941 281.425 303.418 279.625C305.267 277.354 307.311 275.229 309.322 273.104C313.151 269.049 317.158 265.043 321.765 261.88C326.372 258.717 331.157 256.462 336.543 255.959C342.918 255.375 349.18 257.03 355.101 259.252C361.022 261.474 367.024 264.005 372.134 267.606C376.141 270.428 378.964 274.613 380.472 279.236C382.062 284.118 382.435 289.211 382.03 294.305C381.624 299.398 380.651 305.156 377.325 309.211C373.221 314.223 367.008 317.711 361.347 320.679C355.117 323.956 348.547 326.389 341.718 328.092C336.657 329.357 338.798 337.175 343.875 335.91C350.9 334.158 357.713 331.612 364.169 328.335C370.22 325.269 376.401 321.587 381.267 316.835C386.134 312.082 388.567 305.724 389.589 298.927C390.514 292.682 390.546 286.34 389.135 280.16C387.724 273.98 384.95 268.53 380.635 264.216C375.622 259.203 368.857 256.267 362.433 253.526C355.458 250.542 348.239 248.027 340.599 247.735C333.672 247.476 326.875 249.406 320.873 252.829C314.87 256.251 309.209 261.442 304.245 266.632C299.005 272.131 292.727 277.938 292.176 285.967C292.03 288.157 294.155 290.022 296.231 290.022C298.551 290.022 300.141 288.157 300.287 285.967L300.303 285.983Z" fill="black"/>
<path d="M275.824 302.366C275.791 295.845 283.27 293.202 288.461 291.888C292.241 290.931 296.069 290.087 299.897 289.309C303.726 288.53 307.684 287.703 311.61 287.849C318.082 288.092 322.949 293.169 326.713 297.922C331.011 303.339 334.532 309.584 336.997 316.04C338.295 319.462 339.35 322.982 340.144 326.551C340.858 329.827 341.507 333.055 339.609 336.04C337.711 339.024 334.645 341.701 332.05 344.199C329.454 346.697 327.118 348.367 323.501 349.097C315.649 350.687 307.489 350.946 299.524 350.265C296.539 350.006 293.912 349.73 292.257 346.989C290.602 344.247 289.515 340.906 288.023 337.954C286.044 334.028 283.4 330.947 280.22 327.962C277.835 325.74 276.878 323.453 276.813 320.209C276.684 312.974 278.647 306.016 275.272 299.171C274.299 297.208 271.509 296.673 269.724 297.711C267.713 298.879 267.307 301.279 268.264 303.258C269.627 306.032 269.351 309.357 269.14 312.342C268.897 315.797 268.443 319.252 268.865 322.707C269.368 326.827 270.99 330.314 273.958 333.217C275.272 334.515 276.749 335.651 277.933 337.078C279.247 338.668 280.253 340.517 281.161 342.35C282.881 345.805 284.016 349.6 286.368 352.698C289.126 356.315 292.89 357.629 297.286 358.148C306.581 359.219 316.136 358.765 325.317 356.98C329.843 356.105 333.396 354.012 336.754 350.898C339.852 348.027 342.951 344.994 345.53 341.636C348.466 337.792 349.407 333.542 348.775 328.773C348.223 324.702 347.185 320.679 345.887 316.786C343.243 308.854 339.382 301.312 334.369 294.629C329.714 288.4 323.874 282.009 315.941 280.274C310.799 279.155 305.559 280.03 300.465 280.971C295.371 281.912 290.537 282.95 285.671 284.232C276.943 286.535 267.697 292.212 267.745 302.366C267.762 307.589 275.873 307.589 275.856 302.366H275.824Z" fill="black"/>
<path d="M267.405 299.073C261.84 301.15 256.39 303.518 251.101 306.243C248.473 307.605 245.878 309.049 243.331 310.574C240.963 312.001 238.416 313.477 236.631 315.634C232.722 320.387 233.144 326.989 238.562 330.363C240.817 331.774 243.607 332.488 246.154 333.185C248.944 333.947 251.783 334.531 254.654 334.953C261.581 335.975 268.508 336.153 275.451 335.326C277.625 335.067 279.506 333.655 279.506 331.271C279.506 329.276 277.641 326.956 275.451 327.216C269.157 327.962 262.733 328.027 256.455 327.086C253.486 326.648 250.534 325.999 247.63 325.188C246.267 324.815 242.406 324.02 242.017 322.771C241.628 321.522 243.688 319.949 244.678 319.284C247.176 317.613 249.82 316.137 252.448 314.694C257.947 311.693 263.657 309.081 269.53 306.892C271.574 306.129 272.985 304.15 272.369 301.896C271.833 299.933 269.449 298.295 267.372 299.057L267.405 299.073Z" fill="black"/>
<path d="M264.955 331.968C258.401 335.634 254.362 342.025 251.734 348.886C250.485 352.147 249.252 355.683 248.603 359.138C247.614 364.361 252.123 365.95 256.341 366.551C263.917 367.621 271.898 366.08 279.36 364.701C286.822 363.323 293.473 361.019 299.297 356.397C301.017 355.034 300.725 352.082 299.297 350.654C297.61 348.968 295.274 349.292 293.555 350.654C288.493 354.677 281.777 356.121 275.548 357.175C272.158 357.743 268.719 358.294 265.296 358.603C263.414 358.765 261.532 358.862 259.65 358.765C258.758 358.716 257.882 358.651 257.023 358.505C256.536 358.408 256.049 358.311 255.563 358.181C254.589 357.84 254.589 357.921 255.563 358.424L256.601 360.208C256.52 360.841 256.536 360.89 256.649 360.371C256.714 360.143 256.779 359.9 256.844 359.673C257.006 359.089 257.169 358.505 257.331 357.921C257.655 356.753 257.996 355.602 258.369 354.45C259.099 352.147 259.926 349.908 261.046 347.767C262.927 344.15 265.458 341.003 269.059 338.976C273.618 336.429 269.53 329.422 264.971 331.968H264.955Z" fill="black"/>
<path d="M289.191 359.186C288.818 367.946 290.099 377.126 295.712 384.182C297.48 386.404 299.865 388.221 302.866 387.264C305.624 386.388 306.484 383.76 307.846 381.538C308.998 379.673 309.955 378.554 311.496 376.867C313.037 375.18 314.611 373.606 316.12 371.936C319.64 368.043 322.917 363.598 323.89 358.327C324.279 356.251 323.322 353.85 321.051 353.331C319.056 352.877 316.476 353.931 316.055 356.169C315.892 357.029 315.682 357.873 315.406 358.684C315.357 358.813 314.968 359.738 315.162 359.316C314.952 359.77 314.724 360.225 314.465 360.663C313.508 362.382 312.616 363.582 311.529 364.864C309.095 367.718 306.338 370.281 303.953 373.169C302.639 374.758 301.374 376.413 300.368 378.213C300.125 378.651 299.897 379.121 299.67 379.576C299.589 379.738 299.492 379.9 299.427 380.062C299.265 380.387 299.378 380.338 299.33 380.241C299.216 379.932 302.396 379.9 302.509 379.786C302.59 379.705 302.915 380.289 302.623 379.835C302.379 379.462 301.974 379.121 301.682 378.765C302.023 379.17 301.422 378.408 301.325 378.278C301.098 377.937 300.871 377.597 300.66 377.256C300.206 376.494 299.8 375.715 299.427 374.92C299.232 374.499 299.395 374.872 299.427 374.953C299.346 374.758 299.281 374.58 299.2 374.385C299.054 373.996 298.924 373.623 298.794 373.217C298.519 372.374 298.275 371.498 298.064 370.638C297.951 370.168 297.854 369.681 297.772 369.211C297.74 369 297.691 368.805 297.659 368.594C297.659 368.497 297.48 367.475 297.545 367.897C297.61 368.319 297.513 367.605 297.513 367.605C297.48 367.329 297.448 367.053 297.432 366.761C297.383 366.275 297.351 365.788 297.318 365.285C297.188 363.258 297.205 361.23 297.286 359.203C297.367 357.175 295.355 355.05 293.23 355.148C290.959 355.245 289.272 356.932 289.175 359.203L289.191 359.186Z" fill="black"/>
<path d="M306.905 75.555L307.246 98.6368C307.36 106.277 307.392 113.527 311.139 120.421C312.762 123.422 314.724 126.228 316.233 129.293C317.661 132.181 318.747 135.214 319.607 138.312C321.392 144.703 322.154 151.288 322.495 157.906C322.852 164.897 323.03 172.018 322.414 178.993C321.83 185.579 319.818 191.694 316.541 197.403C310.15 208.563 300.676 217.711 295.225 229.439C292.143 236.073 289.937 243.453 290.537 250.85C290.846 254.678 291.803 258.311 293.522 261.766C295.096 264.913 297.578 267.622 298.908 270.898C299.719 272.926 301.617 274.353 303.904 273.737C305.835 273.202 307.554 270.785 306.743 268.741C304.359 262.821 299.622 258.181 298.746 251.661C297.967 245.903 299.492 239.852 301.763 234.597C306.873 222.772 316.33 213.608 322.9 202.643C326.372 196.819 328.951 190.51 329.973 183.778C331.044 176.722 330.979 169.569 330.8 162.464C330.46 148.953 328.805 135.036 322.122 123.032C320.353 119.869 318.05 116.869 316.801 113.446C315.39 109.586 315.487 105.449 315.422 101.41C315.292 92.7812 315.162 84.1681 315.049 75.5388C314.968 70.332 306.857 70.3158 306.938 75.5388L306.905 75.555Z" fill="black"/>
<path d="M310.085 79.0587C331.32 84.3952 340.907 106.877 349.067 124.882C353.803 135.311 358.994 145.336 366.002 154.451C373.01 163.567 380.732 171.013 389.638 177.76C405.098 189.455 424.434 199.334 430.972 218.944C438.369 241.085 429.901 264.183 419.454 283.794C414.166 293.721 408.082 303.437 399.663 311.044C391.244 318.651 379.483 324.588 368.274 320.841C363.31 319.187 361.184 327.021 366.116 328.659C377.504 332.455 390.092 328.222 399.501 321.49C408.407 315.132 415.334 306.502 421.076 297.257C427.354 287.135 432.789 276.235 436.714 264.978C440.64 253.721 442.846 241.296 441.435 229.244C440.024 217.192 435.741 207.055 428.117 198.149C421.206 190.088 412.333 183.957 403.686 177.906C395.04 171.856 386.037 165.06 378.575 156.901C370.642 148.239 364.396 138.377 359.319 127.801C349.78 107.915 341.442 83.8761 319.802 73.9492C317.352 72.83 314.838 71.8892 312.226 71.2404C307.165 69.9752 305.007 77.7935 310.069 79.0587H310.085Z" fill="black"/>
<path d="M366.684 323.047C365.905 327.167 365.11 331.466 364.997 335.683C364.883 340.192 367.706 343.096 371.08 345.642C377.293 350.314 385.193 350.752 391.844 354.499C398.495 358.246 403.394 363.306 408.634 368.302C414.279 373.704 419.941 379.203 424.71 385.415C429.82 392.065 433.827 399.527 435.628 407.767C436.731 412.86 444.566 410.703 443.447 405.61C440.153 390.476 430.144 378.148 419.405 367.475C414.231 362.317 408.975 357.078 403.232 352.536C400.28 350.217 397.214 348.043 393.823 346.389C390.433 344.734 386.767 343.728 383.133 342.625C379.807 341.603 375.671 339.965 373.497 337.078C372.572 335.845 373.286 333.363 373.448 331.871C373.708 329.633 374.065 327.427 374.487 325.221C374.908 323.015 373.886 320.841 371.648 320.225C369.669 319.673 367.073 320.89 366.651 323.063L366.684 323.047Z" fill="black"/>
<path d="M435.563 404.734C437.493 419.364 440.04 433.898 443.301 448.286C443.949 451.124 448.119 452.389 450.081 450.07C456.148 442.884 464.13 437.369 469.142 429.291C474.999 419.851 474.382 408.902 472.857 398.343C472.079 392.974 471.511 387.54 470.667 382.187C469.824 376.834 466.92 371.968 464.519 367.151C460.172 358.44 455.613 349.811 450.13 341.733C443.901 332.552 436.552 324.312 427.517 317.808C425.732 316.527 423.007 317.5 421.969 319.268C420.768 321.312 421.644 323.534 423.429 324.815C438.142 335.423 447.502 351.595 455.597 367.426C457.657 371.465 459.961 375.521 461.648 379.738C463.497 384.361 463.432 389.795 464.162 394.677C465.541 403.858 467.796 414.385 463.335 423.079C458.874 431.773 450.438 437.126 444.339 444.344L451.12 446.128C448.005 432.454 445.491 418.635 443.657 404.734C443.365 402.56 442.003 400.678 439.602 400.678C437.639 400.678 435.254 402.544 435.546 404.734H435.563Z" fill="black"/>
<path d="M429.804 319.868C430.193 320.371 429.317 319.187 429.236 319.073C428.928 318.635 428.636 318.197 428.344 317.743C427.776 316.835 427.257 315.91 426.77 314.953C426.527 314.483 426.3 313.996 426.073 313.51C426.008 313.38 425.424 312.001 425.683 312.634C425.294 311.709 424.953 310.752 424.613 309.795C423.218 305.756 422.228 301.604 421.255 297.451C420.768 295.391 418.286 293.964 416.258 294.613C414.101 295.31 412.9 297.386 413.419 299.609C415.577 308.854 418.075 318.019 424.061 325.594C425.375 327.265 428.441 327.086 429.804 325.594C431.426 323.826 431.215 321.636 429.804 319.852V319.868Z" fill="black"/>
<path d="M315.292 78.7018C315.973 73.2193 317.677 66.8608 320.889 62.2867C322.187 60.4375 324.75 62.1893 326.323 62.9679C329.211 64.3791 332.098 65.7903 335.002 67.169C346.828 72.7651 358.816 78.0043 370.95 82.8705C377.877 85.6442 384.852 88.2881 391.86 90.8185C393.921 91.5647 396.305 89.975 396.857 87.9799C397.473 85.7253 396.094 83.7302 394.018 82.984C380.554 78.1341 367.251 72.83 354.176 67.0555C347.59 64.152 341.053 61.1188 334.58 57.9882C328.61 55.101 320.613 50.0726 315.081 56.5933C312.583 59.5454 311.058 63.5032 309.777 67.1042C308.495 70.7051 307.684 74.744 307.197 78.6856C306.922 80.8591 309.258 82.7407 311.253 82.7407C313.67 82.7407 315.033 80.8753 315.308 78.6856L315.292 78.7018Z" fill="black"/>
<path d="M400.783 56.9501C395.478 64.2169 392.639 72.9922 391.374 81.8324C390.06 91.0618 389.687 100.681 390.222 109.991C390.725 118.766 393.353 126.958 400.572 132.457C407.79 137.955 417.232 139.302 426.073 139.156C430.68 139.074 435.303 138.409 439.521 136.447C443.365 134.663 446.529 131.694 449.124 128.385C451.72 125.076 454.25 121.281 456.084 117.339C458.16 112.878 459.02 108.434 459.685 103.584C460.934 94.4195 465.265 85.9524 465.833 76.6743C466.401 67.3961 462.167 59.7076 454.478 54.8739C450.211 52.1975 445.28 50.689 440.413 49.5049C435.108 48.2073 429.69 46.9745 424.223 46.7799C414.993 46.4555 404.757 50.0889 400.523 58.8966C399.582 60.8755 399.988 63.2761 401.983 64.444C403.751 65.4821 406.574 64.9793 407.531 62.9842C410.435 56.9339 417.134 54.7766 423.461 54.8577C427.517 54.9064 431.458 55.7336 435.4 56.642C439.342 57.5503 442.992 58.3613 446.545 59.8698C452.888 62.5624 457.625 67.3799 457.771 74.5494C457.933 82.5947 453.975 90.0237 452.45 97.7933C451.704 101.605 451.541 105.53 450.503 109.294C449.465 113.057 447.664 116.204 445.653 119.334C443.803 122.205 441.76 125.044 439.083 127.217C436.406 129.391 433.21 130.413 429.869 130.818C422.699 131.678 414.214 131.11 407.807 127.542C401.756 124.152 399.031 118.426 398.447 111.678C398.073 107.363 398.187 103 398.268 98.6692C398.349 94.0464 398.528 89.4236 399.095 84.8169C400.117 76.3174 402.697 67.9963 407.79 61.0377C409.088 59.2697 408.082 56.5122 406.33 55.4903C404.27 54.29 402.08 55.1659 400.783 56.9501Z" fill="black"/>
<path d="M398.868 63.9898C398.365 67.6719 397.846 71.4188 397.717 75.1333C397.587 79.1073 399.079 82.0432 401.464 85.0765C405.195 89.8291 410.208 93.6084 415.707 96.0577C428.441 101.767 442.7 101.037 455.759 96.7228C460.691 95.1007 458.582 87.2662 453.602 88.9045C442.927 92.4243 431.215 93.6246 420.573 89.3749C416.21 87.6231 412.203 84.9305 409.007 81.4755C407.417 79.7561 405.763 77.9394 405.811 75.5064C405.876 72.392 406.266 69.229 406.687 66.1309C406.979 63.9574 406.168 61.7838 403.849 61.135C401.951 60.616 399.16 61.7838 398.852 63.9736L398.868 63.9898Z" fill="black"/>
<path d="M358.183 123.178C364.834 113.592 378.023 112.132 388.632 110.981C390.806 110.737 392.688 109.294 392.688 106.925C392.688 104.914 390.822 102.627 388.632 102.87C374.73 104.395 359.741 106.731 351.175 119.091C349.926 120.891 350.851 123.6 352.635 124.638C354.647 125.822 356.934 124.995 358.183 123.178Z" fill="black"/>
<path d="M447.178 121.767C451.752 137.744 466.612 146.487 474.885 160.129C478.681 166.406 480.903 173.867 477.821 180.923C474.739 187.979 468.445 193.105 462.897 198.117C454.834 205.384 446.788 212.667 438.726 219.934C434.849 223.437 440.591 229.163 444.468 225.676C451.931 218.928 459.409 212.196 466.871 205.449C472.971 199.934 479.589 194.467 483.71 187.233C488.106 179.512 488.447 170.607 485.089 162.432C481.731 154.257 475.988 147.671 470.018 141.329C463.984 134.922 457.511 128.304 455.013 119.626C453.569 114.614 445.75 116.755 447.194 121.783L447.178 121.767Z" fill="black"/>
<path d="M432.74 203.616C440.202 194.5 450.471 187.963 456.603 177.728C459.62 172.716 461.664 166.779 461.291 160.875C460.918 154.971 458.273 149.374 454.526 144.654C450.195 139.22 444.322 135.246 438.645 131.37C436.828 130.137 434.151 131.029 433.097 132.83C431.929 134.841 432.74 137.144 434.557 138.377C444.582 145.222 456.7 154.484 452.174 168.255C448.021 180.858 435.06 188.06 427.014 197.906C425.635 199.593 425.359 201.977 427.014 203.648C428.441 205.076 431.361 205.351 432.756 203.648L432.74 203.616Z" fill="black"/>
<path d="M369.328 140.583C369.36 140.307 369.409 140.048 369.49 139.788C369.328 140.145 369.344 140.096 369.571 139.675C369.182 140.161 370.155 139.091 370.285 138.977C369.928 139.269 371.064 138.474 371.226 138.377C371.599 138.15 371.988 137.955 372.361 137.761C374.908 136.463 377.52 135.279 380.099 134.046C384.333 132.019 389.508 128.953 394.261 129.829C396.419 130.218 398.641 129.245 399.258 126.99C399.793 125.027 398.593 122.4 396.419 121.994C389.005 120.632 382.5 123.925 375.995 127.039C373.108 128.418 370.09 129.683 367.3 131.272C364.51 132.862 361.996 135.214 361.476 138.442C361.136 140.599 362.028 142.805 364.315 143.438C366.246 143.973 368.955 142.789 369.312 140.599L369.328 140.583Z" fill="black"/>
<path d="M474.528 188.709C477.367 218.49 488.722 246.795 490.669 276.673C491.691 292.358 490.069 308.157 488.641 323.761C487.214 339.365 485.689 354.32 483.548 369.503C481.65 382.998 478.778 397.564 468.931 407.686C465.282 411.433 471.024 417.175 474.674 413.428C483.986 403.858 488.138 390.914 490.393 378.018C493.021 362.982 494.449 347.67 495.941 332.488C497.515 316.575 499.283 300.517 499.088 284.507C498.894 268.498 496.039 253.916 492.599 238.928C488.771 222.302 484.261 205.724 482.639 188.693C482.428 186.519 480.92 184.638 478.584 184.638C476.556 184.638 474.317 186.503 474.528 188.693V188.709Z" fill="black"/>
<path d="M438.775 250.493C441.792 250.071 443.398 247.671 445.328 245.643C446.869 244.021 448.784 242.934 450.763 241.929C455.467 239.528 460.48 237.614 463.984 233.461C467.828 228.92 469.807 223.275 472.014 217.825C474.577 211.548 477.124 205.254 479.687 198.977C480.514 196.949 478.795 194.516 476.848 193.981C474.528 193.348 472.695 194.776 471.851 196.819C469.548 202.48 467.244 208.158 464.941 213.818C463.059 218.458 461.469 223.794 458.241 227.719C455.354 231.255 450.876 232.796 446.918 234.792C444.761 235.878 442.717 237.127 440.867 238.701C439.959 239.463 439.213 240.339 438.434 241.231C437.85 241.912 437.509 242.545 436.601 242.675C434.427 242.983 433.243 245.757 433.762 247.671C434.411 250.006 436.568 250.801 438.758 250.509L438.775 250.493Z" fill="black"/>
<path d="M455.516 235.959C469.905 260.258 480.887 286.405 488.171 313.704C489.517 318.749 497.336 316.608 495.99 311.547C488.528 283.631 477.237 256.738 462.507 231.872C459.847 227.379 452.839 231.466 455.5 235.959H455.516Z" fill="black"/>
<path d="M396.97 130.51C396.97 132.002 397.003 133.495 397.003 134.987C397.003 135.782 397.003 136.577 396.938 137.355L396.905 137.647C396.857 138.085 396.873 137.988 396.954 137.339C396.808 137.534 396.808 138.101 396.759 138.345C396.63 138.928 396.451 139.512 396.257 140.064C396.192 140.226 396.143 140.388 396.078 140.551C396.321 139.983 396.354 139.885 396.175 140.291C396.029 140.599 395.883 140.907 395.721 141.216C395.429 141.751 395.105 142.237 394.764 142.74C394.505 143.081 394.57 143.016 394.943 142.529C394.829 142.659 394.732 142.789 394.618 142.919C394.391 143.178 394.164 143.438 393.921 143.681C392.444 145.206 392.282 147.915 393.921 149.423C395.559 150.932 398.09 151.061 399.663 149.423C401.983 147.023 403.735 144.005 404.546 140.745C405.357 137.485 405.13 133.916 405.114 130.494C405.114 128.369 403.265 126.341 401.058 126.439C398.852 126.536 396.987 128.223 397.003 130.494L396.97 130.51Z" fill="black"/>
<path d="M428.019 136.155C426.219 139.188 425.521 142.659 425.343 146.147C425.262 147.704 425.262 149.277 425.473 150.818C425.797 153.284 427.354 155.117 429.593 156.106C430.615 156.56 431.588 156.82 432.724 156.511C433.665 156.252 434.687 155.522 435.141 154.646C436.066 152.878 435.757 150.023 433.681 149.099C433.47 149.001 433.259 148.92 433.064 148.807C432.708 148.628 432.416 148.271 433.129 148.953C432.626 148.466 433.519 149.796 433.21 149.082L433.454 149.634C433.405 149.488 433.373 149.342 433.356 149.18L433.502 150.25C433.243 148.255 433.373 146.13 433.616 144.151L433.47 145.222C433.6 144.216 433.794 143.211 434.103 142.237C434.168 142.01 434.249 141.783 434.33 141.54C434.378 141.394 434.638 140.567 434.443 141.232C434.249 141.897 434.524 141.102 434.606 140.94C434.735 140.68 434.881 140.437 435.027 140.194C436.114 138.361 435.498 135.668 433.567 134.646C431.637 133.624 429.171 134.143 428.019 136.106V136.155Z" fill="black"/>
<path d="M395.673 130.818C386.653 129.845 378.737 137.144 378.169 145.984C377.845 150.932 379.694 155.863 382.338 159.966C384.771 163.762 387.772 167.493 391.066 170.575C398.317 177.371 407.596 178.312 417.086 178.701C421.709 178.88 426.478 178.896 430.956 177.549C435.433 176.203 439.602 173.3 442.944 170.104C446.886 166.341 447.632 161.313 446.983 156.122C446.285 150.526 444.907 145.141 442.717 139.934C441.873 137.923 440.04 136.463 437.72 137.096C435.822 137.615 434.038 140.048 434.881 142.091C436.39 145.692 437.574 149.407 438.353 153.235C438.921 156.057 439.926 160.048 438.515 162.756C437.201 165.303 433.438 167.558 430.988 168.823C428.036 170.38 424.564 170.623 421.271 170.656C414.604 170.704 406.509 170.883 400.507 167.574C397.457 165.887 395.121 163.292 392.915 160.648C390.709 158.004 388.438 155.1 387.188 151.824C385.939 148.547 385.599 144.784 387.805 141.994C389.735 139.561 392.639 138.588 395.656 138.912C397.83 139.139 399.712 136.885 399.712 134.857C399.712 132.473 397.846 131.045 395.656 130.802L395.673 130.818Z" fill="black"/>
<path d="M433.713 168.904C433.778 170.834 433.827 172.764 433.892 174.678C433.924 175.7 433.957 176.722 433.924 177.744C433.924 178.182 433.892 178.62 433.859 179.058C433.843 179.35 433.811 179.642 433.778 179.934C433.811 179.674 433.794 179.674 433.762 179.966C433.065 183.924 431.896 187.849 430.939 191.742C430.436 193.802 431.604 196.235 433.778 196.738C435.952 197.241 438.223 196.106 438.775 193.9C439.78 189.861 441.029 185.789 441.678 181.686C442.327 177.582 441.987 173.154 441.857 168.904C441.792 166.779 440.04 164.751 437.801 164.849C435.563 164.946 433.681 166.633 433.746 168.904H433.713Z" fill="black"/>
<path d="M463.854 436.12C485.154 452.065 512.909 451.611 538.183 453.687C540.357 453.865 543.375 453.703 545.321 454.871C546.797 455.763 545.5 457.547 544.526 458.375C542.417 460.143 539.481 461.067 536.983 462.154C533.852 463.5 530.738 464.847 527.607 466.177C515.635 471.27 503.566 476.185 491.269 480.418C477.253 485.252 462.929 489.161 448.264 491.416C446.091 491.756 444.907 494.465 445.426 496.412C446.058 498.731 448.248 499.575 450.422 499.25C478.356 494.936 504.782 484.619 530.656 473.622C533.901 472.243 537.145 470.848 540.39 469.453C543.375 468.172 546.505 467.036 549.117 465.041C554.552 460.889 556.368 452.341 549.88 448.14C547.446 446.566 544.559 446.161 541.736 445.885C538.07 445.512 534.387 445.269 530.705 445.025C523.356 444.539 515.992 444.133 508.676 443.29C494.254 441.651 479.735 437.937 467.958 429.113C466.206 427.799 463.432 428.821 462.41 430.573C461.193 432.649 462.102 434.806 463.87 436.12H463.854Z" fill="black"/>
<path d="M444.177 493.265C444.225 499.088 443.949 504.911 443.317 510.718C443.268 511.205 443.236 511.708 443.155 512.194C442.927 513.654 442.879 512.519 443.511 512.551C442.668 512.502 441.289 513.184 440.51 513.459C438.077 514.303 435.709 515.39 433.502 516.72C429.269 519.266 425.473 522.624 422.196 526.322C421.482 527.133 420.784 527.961 420.103 528.804C419.762 529.226 418.789 530.167 418.675 530.637L418.627 530.702C418.205 531.205 418.773 531.107 420.314 530.394C420.217 529.777 417.962 528.35 417.459 527.912C416.193 526.809 414.896 525.722 413.598 524.652C409.267 521.083 404.854 517.515 400.182 514.4C395.802 511.481 390.514 508.691 385.096 508.82C379.678 508.95 374.681 512.389 370.285 515.438C365.889 518.488 361.347 521.91 357.534 525.771C356.934 526.371 357.096 526.339 356.269 526.274C355.166 526.193 354.014 525.609 353.073 525.073C350.786 523.727 349.342 521.537 347.931 519.364C344.865 514.66 341.329 509.68 335.44 508.528C333.299 508.107 331.06 509.145 330.444 511.367C329.892 513.362 331.109 515.925 333.282 516.363C338.084 517.304 340.177 522.657 342.789 526.209C346.033 530.605 350.737 534.141 356.383 534.449C359.514 534.611 361.606 533.054 363.78 531.01C365.954 528.966 368.144 527.085 370.463 525.284C372.507 523.695 374.633 522.219 376.806 520.807C378.98 519.396 381.446 517.515 384.074 517.044C389.119 516.12 394.602 520.272 398.414 523.046C403.102 526.452 407.612 530.118 411.992 533.897C414.166 535.779 416.356 538.277 419.422 538.471C423.023 538.699 424.629 535.957 426.641 533.54C429.723 529.842 433.194 526.42 437.298 523.889C439.586 522.494 441.905 521.472 444.469 520.726C447.843 519.737 450.227 517.936 450.941 514.368C452.288 507.555 452.304 500.191 452.255 493.281C452.207 488.058 444.095 488.058 444.144 493.281L444.177 493.265Z" fill="black"/>
<path d="M337.987 509.258C335.635 505.106 333.72 500.791 332.277 496.25C330.833 491.708 330.022 486.631 328.951 481.781C326.842 472.146 321.846 463.776 317.466 455.066C313.086 446.355 310.766 437.142 308.739 427.702C307.684 422.819 306.451 417.888 306.792 412.844C307.1 408.351 308.917 403.825 310.62 399.689C314.351 390.589 319.834 382.187 326.842 375.277C330.573 371.611 324.831 365.869 321.1 369.535C314.303 376.218 308.82 384.198 304.813 392.844C302.753 397.288 300.855 401.944 299.654 406.712C298.291 412.179 298.535 417.564 299.524 423.079C301.357 433.298 303.661 443.711 307.733 453.282C311.804 462.852 317.498 470.686 320.224 480.256C321.797 485.771 322.414 491.481 324.02 496.979C325.626 502.478 328.059 508.155 330.979 513.313C333.542 517.855 340.55 513.768 337.987 509.226V509.258Z" fill="black"/>
<path d="M320.483 474.644C328.578 483.111 338.749 489.194 348.726 495.163C358.702 501.132 369.685 506.517 381.819 506.079C405.536 505.236 423.98 487.62 435.417 468.221C438.839 462.414 441.37 456.185 442.311 449.486C442.814 445.95 442.733 442.462 442.895 438.91C443.025 436.185 443.544 433.703 445.75 431.952C447.47 430.589 447.178 427.637 445.75 426.21C444.063 424.523 441.727 424.847 440.007 426.21C435.271 429.989 434.768 436.234 434.735 441.83C434.703 447.426 433.843 452.73 431.669 457.823C427.679 467.215 420.93 476.152 413.598 483.192C406.022 490.475 396.662 495.877 386.199 497.547C375.736 499.218 365.727 495.552 356.561 490.329C345.887 484.246 334.791 477.839 326.242 468.902C322.625 465.122 316.898 470.865 320.499 474.644H320.483Z" fill="black"/>
<path d="M326.599 374.969C330.655 371.465 334.726 367.962 338.782 364.458C342.205 361.506 345.627 358.554 349.44 356.105C353.252 353.655 357.275 351.936 361.768 351.109C366.765 350.184 371.956 350.087 377.017 349.714C379.207 349.551 381.073 347.962 381.073 345.659C381.073 343.582 379.207 341.441 377.017 341.603C371.469 342.009 365.856 342.236 360.357 343.144C355.215 344.004 350.348 345.967 345.936 348.724C341.523 351.482 337.873 354.564 334.094 357.808C329.665 361.603 325.269 365.415 320.856 369.227C319.202 370.654 319.38 373.493 320.856 374.969C322.495 376.607 324.928 376.396 326.599 374.969Z" fill="black"/>
<path d="M333.526 513.022C328.075 515.828 322.982 519.283 318.342 523.289C313.946 527.069 309.079 531.643 306.597 536.979C304.115 542.316 303.921 551.951 311.285 553.654C317.661 555.13 324.863 555 331.352 554.546C338.83 554.027 346.228 552.648 353.365 550.394C358.329 548.82 356.204 540.986 351.208 542.575C344.638 544.652 337.857 546.03 330.979 546.468C327.491 546.695 323.987 546.712 320.483 546.517C318.731 546.42 316.996 546.274 315.26 546.079C314.692 546.014 313.832 546.014 313.297 545.819C313.054 545.771 313.102 545.819 313.443 545.982C313.281 545.738 313.183 545.463 313.151 545.171C312.47 542.494 314.108 539.704 315.665 537.644C317.531 535.211 319.77 532.973 322.008 530.897C326.68 526.549 331.936 522.965 337.614 520.045C342.253 517.661 338.165 510.653 333.526 513.038V513.022Z" fill="black"/>
<path d="M354.095 529.648C352.684 534.303 350.965 539.055 350.348 543.905C349.732 548.755 351.613 552.891 354.631 556.752C359.465 562.948 365.889 567.944 373.091 571.075C380.894 574.465 390.157 576.736 398.268 573.2C401.934 571.594 405.357 569.29 408.634 567.003C411.911 564.716 415.269 562.072 417.945 558.958C423.688 552.291 427.744 541.651 421.839 533.735C420.525 531.983 418.335 531.091 416.291 532.275C414.571 533.281 413.517 536.055 414.831 537.823C418.4 542.592 415.853 548.853 412.414 552.973C408.277 557.936 402.551 561.667 396.97 564.797C393.839 566.549 390.822 567.214 387.237 566.776C384.09 566.387 380.959 565.511 377.991 564.376C372.215 562.17 366.992 558.471 362.823 553.93C360.617 551.513 358.021 548.69 358.313 545.203C358.702 540.71 360.617 536.087 361.914 531.805C363.423 526.793 355.604 524.652 354.095 529.648Z" fill="black"/>
<path d="M443.463 522.154C452.661 527.409 460.431 534.919 465.849 544.035C466.855 545.722 469.207 548.755 468.672 550.848C468.591 551.172 468.575 551.042 468.672 550.994C468.38 551.205 467.926 551.221 467.569 551.253C466.093 551.399 464.535 551.188 463.075 551.059C457.073 550.507 451.185 548.95 445.361 547.458C438.32 545.641 431.28 543.905 424.013 543.208C421.823 542.997 419.957 545.219 419.957 547.263C419.957 549.631 421.823 551.107 424.013 551.318C438.353 552.697 451.817 559.055 466.32 559.38C469.872 559.461 473.587 558.455 475.518 555.211C477.448 551.967 476.848 547.993 475.339 544.603C472.711 538.731 468.688 533.297 464.373 528.561C459.523 523.24 453.78 518.715 447.551 515.146C443.009 512.551 438.921 519.558 443.463 522.154Z" fill="black"/>
<path d="M321.7 484.555C292.354 488.22 262.424 486.517 233.728 479.348C225.503 477.288 217.392 474.79 209.427 471.903C207.367 471.157 204.982 472.746 204.431 474.741C203.814 476.996 205.193 478.975 207.269 479.737C235.707 490.086 266.107 495.13 296.361 494.53C304.829 494.368 313.297 493.735 321.7 492.681C323.874 492.405 325.755 491.01 325.755 488.626C325.755 486.647 323.89 484.295 321.7 484.571V484.555Z" fill="black"/>
<path d="M201.738 469.567C201.202 475.731 200.764 482.024 199.645 488.107C199.288 490.005 198.883 492.13 197.731 493.719C196.514 495.422 194.454 495.455 192.394 495.779C187.057 496.623 182.223 499.932 179.481 504.587C178.183 506.809 177.518 509.323 176.35 511.594C175.085 514.043 173.09 515.325 170.721 516.59C169.391 517.304 167.655 518.634 166.114 517.985C164.265 517.206 163.194 514.709 162.513 512.973C160.469 507.75 158.701 502.494 153.169 500.013C148.464 497.904 142.478 497.677 137.385 498.001C134.562 498.18 131.804 498.699 129.274 499.98C128.008 500.613 127.051 501.554 125.883 502.332C125.137 502.819 125.024 502.949 124.18 502.624C121.747 501.683 119.914 498.731 118.275 496.866C116.118 494.4 113.863 492 111.348 489.907C108.834 487.815 105.898 485.95 102.816 484.425C101.339 483.695 99.8306 483.014 98.3869 482.235C97.7704 481.911 97.154 481.554 96.5538 481.197C96.1482 480.954 95.7589 480.694 95.3696 480.435C95.256 480.224 95.3696 480.321 95.7427 480.743V482.9L95.8238 482.381C95.5156 482.884 95.5967 482.868 96.0671 482.332C96.424 482.105 96.7485 481.748 97.0729 481.489C97.9327 480.824 98.8411 480.208 99.7333 479.591C101.664 478.31 103.675 477.126 105.719 476.006C109.613 473.865 113.636 471.903 117.513 469.729C121.39 467.556 125.445 464.912 128.884 461.797C132.729 458.31 135.617 453.963 138.65 449.778C141.684 445.593 144.863 442.025 148.448 438.586C149.405 437.661 150.379 436.769 151.384 435.893C151.806 435.52 152.406 435.147 152.763 434.709L153.315 434.239C153.899 434.206 153.38 434.222 151.741 434.304C151.725 434.596 153.315 435.763 153.558 435.99C154.483 436.818 155.424 437.629 156.397 438.391C163.421 444.036 171.273 448.399 179.092 452.827C187.706 457.694 196.271 462.771 203.019 470.135C206.556 473.995 212.282 468.237 208.762 464.393C194.551 448.902 173.317 443.014 157.938 428.983C155.635 426.875 152.828 425.48 149.746 427.004C147.134 428.302 144.814 430.832 142.722 432.844C138.277 437.11 134.384 441.862 130.799 446.874C127.603 451.335 124.326 455.536 119.816 458.732C115.307 461.927 110.781 464.165 106.125 466.599C101.469 469.032 96.7809 471.562 92.5632 474.79C90.2596 476.558 87.7776 478.634 87.7776 481.813C87.7776 485.366 90.9085 487.377 93.6663 488.918C96.132 490.297 98.76 491.367 101.226 492.746C103.692 494.125 106.076 495.958 108.201 498.001C112.208 501.878 115.436 507.49 120.644 509.907C123.434 511.205 126.581 511.335 129.306 509.777C131.675 508.415 133.118 506.76 135.941 506.29C138.309 505.901 140.791 506.079 143.176 506.209C145.561 506.339 148.091 506.404 150.168 507.555C151.968 508.545 152.861 510.394 153.607 512.243C154.645 514.806 155.391 517.531 156.9 519.883C160.307 525.219 165.838 527.75 171.84 525.073C174.728 523.792 177.648 522.186 180.016 520.061C182.515 517.807 183.812 514.838 185.045 511.789C185.97 509.485 187.041 507.296 189.052 505.755C191.437 503.922 194.097 503.825 196.936 503.241C203.084 501.975 206.215 496.558 207.367 490.799C208.762 483.857 209.249 476.607 209.865 469.551C210.06 467.361 207.87 465.496 205.809 465.496C203.457 465.496 201.949 467.361 201.754 469.551L201.738 469.567Z" fill="black"/>
<path d="M103.854 340.241C84.9388 348.822 68.3598 365.626 61.6926 385.529C59.7135 391.433 59.6648 397.694 59.4701 403.858C59.2755 410.021 58.951 416.201 58.951 422.381C58.9348 433.655 60.9788 444.49 65.8941 454.66C70.8094 464.83 78.9204 474.287 88.5563 480.97C90.357 482.219 93.066 481.294 94.1042 479.51C95.2885 477.499 94.4611 475.212 92.6443 473.963C76.8926 463.046 67.6298 444.863 67.0945 425.853C66.9323 420.062 67.2405 414.271 67.4189 408.497C67.5974 402.722 67.3054 396.85 68.522 391.271C70.5336 381.976 76.3573 373.055 82.5704 365.999C89.627 357.986 98.2409 351.644 107.958 347.248C109.953 346.34 110.44 343.453 109.418 341.701C108.217 339.657 105.865 339.333 103.87 340.241H103.854Z" fill="black"/>
<path d="M102.41 344.572C105.346 357.581 110.067 370.184 116.345 381.96C122.623 393.736 130.75 403.923 139.283 414.141C143.728 419.462 147.945 425.155 149.86 431.919C151.287 436.931 159.106 434.806 157.679 429.762C154.077 417.077 144.182 408.075 136.314 397.986C128.446 387.897 121.73 376.218 116.929 364.15C114.122 357.094 111.884 349.827 110.213 342.431C109.061 337.337 101.242 339.495 102.394 344.588L102.41 344.572Z" fill="black"/>
<path d="M125.818 192.764C119.897 216.089 113.717 239.382 108.769 262.934C106.287 274.807 104.162 286.762 102.572 298.781C100.982 310.801 99.49 322.123 100.123 333.688C100.853 347.086 106.125 359.43 111.446 371.563C112.322 373.574 115.258 374.028 116.994 373.023C119.07 371.806 119.33 369.486 118.454 367.475C114.074 357.451 109.45 347.021 108.412 335.991C107.374 324.961 108.931 312.78 110.343 301.506C113.23 278.36 118.437 255.554 124.034 232.926C127.165 220.242 130.425 207.59 133.637 194.922C134.919 189.861 127.1 187.703 125.818 192.764Z" fill="black"/>
<path d="M197.715 9.65119C186.181 10.0729 174.679 8.98615 163.243 7.55875C157.5 6.84505 151.774 6.03402 146.047 5.32032C140.662 4.63906 135.049 3.60095 129.614 4.02268C124.65 4.41198 119.638 6.06647 116.247 9.87828C112.533 14.0307 112.111 19.2862 113.149 24.5578C114.074 29.1969 115.777 33.3818 114.609 38.1506C113.441 42.9194 111.251 47.3963 110.699 52.3597C110.44 54.6468 110.699 56.8853 111.105 59.1237C111.462 61.1188 112.322 63.4221 112.013 65.4821C111.738 67.315 110.115 67.899 108.574 68.6127C105.995 69.813 103.367 70.9322 100.755 72.0838C95.4507 74.4358 90.1461 76.804 84.8415 79.156C80.2182 81.216 75.5138 83.4057 73.2751 88.2719C71.2636 92.619 70.9554 97.6798 70.6309 102.384C70.3065 107.088 70.3552 111.483 70.7932 116.009C71.6854 125.417 74.1025 134.727 78.7906 142.984C81.4024 147.59 84.7441 151.71 88.5401 155.376C90.7139 157.468 92.9687 159.48 94.9965 161.718C97.0242 163.957 98.6302 166.26 100.317 168.628C103.773 173.462 107.504 177.906 111.867 181.945C116.491 186.244 121.276 190.38 125.997 194.581C129.89 198.036 135.633 192.326 131.739 188.839C124.148 182.075 115.615 175.619 109.45 167.444C106.336 163.324 103.578 158.928 100.009 155.181C96.6349 151.629 92.7741 148.547 89.6919 144.719C79.0989 131.581 76.844 112.505 79.3908 96.2686C79.6828 94.4195 80.0235 92.2784 81.1915 90.7374C82.3595 89.1965 84.3061 88.2881 86.0419 87.4771C90.8274 85.2387 95.7103 83.1787 100.528 81.0213C103.059 79.9021 105.59 78.7667 108.12 77.6475C110.375 76.6418 112.857 75.7821 114.95 74.4358C119.638 71.4188 120.611 66.5689 119.8 61.3783C119.492 59.4319 118.908 57.5179 118.746 55.5552C118.551 53.3005 119.038 51.1756 119.67 49.0345C121.017 44.509 122.931 40.1944 123.223 35.4093C123.515 30.6243 121.309 25.9366 120.773 21.0866C120.352 17.291 122.12 14.42 125.672 13.0251C130.766 11.0137 136.931 12.3114 142.17 12.944C148.432 13.6901 154.677 14.566 160.923 15.377C173.138 16.9504 185.418 18.2156 197.747 17.7777C202.954 17.583 202.971 9.47277 197.747 9.66741L197.715 9.65119Z" fill="black"/>
<path d="M128.495 195.992C142.673 197.42 156.851 199.074 171.062 200.193C185.272 201.312 198.964 200.015 212.752 197.566C226.541 195.116 238.773 191.742 251.183 186.892C257.233 184.524 263.479 182.042 269.076 178.75C271.85 177.111 274.364 174.97 276.002 172.164C277.641 169.358 278.468 166.163 279.101 163.032C280.496 156.236 280.885 149.196 280.058 142.302C279.344 136.431 277.608 129.926 271.282 127.899C264.955 125.871 259.213 130.332 255.076 134.63C251.329 138.523 247.16 141.41 242.001 143.13C231.197 146.714 218.998 146.633 207.74 146.406C201.04 146.276 194.811 145.125 188.517 142.838C182.223 140.55 175.993 137.971 169.488 136.187C156.77 132.732 143.436 131.256 130.279 131.889C123.742 132.197 117.156 132.959 110.764 134.37C105.46 135.538 99.9929 137.371 95.548 140.599C93.0985 142.4 91.087 144.411 89.3025 146.876C88.021 148.645 88.9943 151.402 90.7625 152.424C92.8065 153.624 95.0289 152.748 96.3105 150.964C98.9871 147.25 103.318 145.027 107.569 143.616C112.857 141.881 118.454 141.005 123.985 140.453C136.152 139.237 148.513 139.821 160.485 142.351C166.649 143.649 172.716 145.449 178.605 147.671C184.494 149.893 190.269 152.408 196.482 153.478C202.695 154.549 209.265 154.581 215.689 154.451C221.091 154.338 226.493 154.176 231.846 153.494C242.78 152.116 252.772 148.661 260.559 140.583C262.619 138.442 268.005 132.602 270.552 137.209C271.639 139.156 271.882 141.637 272.093 143.827C272.401 147.039 272.45 150.283 272.255 153.494C272.06 156.706 271.574 159.707 270.86 162.74C270.276 165.157 269.627 167.752 267.843 169.569C265.896 171.564 263.171 172.732 260.705 173.916C257.996 175.23 255.254 176.479 252.48 177.631C240.995 182.416 229.007 185.968 216.84 188.498C204.674 191.029 191.307 192.845 178.41 192.456C165.514 192.067 151.774 190.169 138.52 188.839L128.495 187.833C126.305 187.622 124.44 189.861 124.44 191.888C124.44 194.257 126.305 195.716 128.495 195.943V195.992Z" fill="black"/>
<path d="M261.792 137.371C263.884 136.641 265.198 135.182 266.042 133.186C266.658 131.71 267.226 130.202 267.68 128.661C268.605 125.579 269.157 122.384 269.449 119.188C269.546 118.215 268.929 116.982 268.264 116.317C267.567 115.62 266.399 115.084 265.393 115.133C263.025 115.247 261.548 116.917 261.338 119.188C261.273 119.805 261.208 120.405 261.127 121.021L261.273 119.95C260.964 122.173 260.494 124.362 259.861 126.52C259.553 127.574 259.196 128.612 258.791 129.634C258.693 129.877 258.596 130.121 258.499 130.364C258.937 129.18 258.726 129.845 258.58 130.121C258.515 130.234 258.45 130.348 258.385 130.461L258.791 129.959C258.71 130.056 258.612 130.153 258.531 130.234C258.839 129.894 259.229 129.667 259.667 129.553C257.671 130.251 256.13 132.359 256.828 134.549C257.46 136.528 259.667 138.134 261.824 137.388L261.792 137.371Z" fill="black"/>
<path d="M309.306 111.824C303.272 131.954 290.618 150.04 273.585 162.4C271.817 163.681 270.941 165.919 272.125 167.947C273.147 169.699 275.889 170.688 277.673 169.407C296.475 155.749 310.442 136.252 317.125 113.981C318.634 108.969 310.799 106.828 309.306 111.824Z" fill="black"/>
<path d="M71.4582 88.8234C60.8977 91.9377 50.2884 95.7171 41.4799 102.513C33.6933 108.531 26.9935 117.177 25.4524 127.136C24.544 132.992 25.9878 138.02 29.7351 142.578C33.1093 146.682 37.4081 150.185 41.4961 153.559C45.584 156.933 49.9802 160.275 54.4413 163.324C58.9024 166.374 63.623 169.682 68.6032 171.921C74.7027 174.678 81.7268 172.829 87.6317 170.266C93.5365 167.704 97.3973 163.259 98.03 157.031C98.2409 154.841 96.0022 152.975 93.9745 152.975C91.6061 152.975 90.1461 154.841 89.919 157.031C89.5783 160.453 85.6688 162.513 82.8299 163.486C80.6724 164.216 78.3364 164.93 76.0815 165.238C73.8267 165.546 72.1234 164.719 70.1929 163.632C62.3252 159.188 54.7982 154.046 47.8065 148.304C44.2376 145.384 40.7174 142.351 37.473 139.058C34.5044 136.057 32.6875 132.943 33.4013 128.596C34.6828 120.843 39.8739 114.225 45.8274 109.391C53.8086 102.903 63.915 99.5289 73.632 96.6741C78.6284 95.198 76.5033 87.3798 71.4745 88.8558L71.4582 88.8234Z" fill="black"/>
<path d="M82.2784 173.543C84.1926 174.419 86.2852 175.571 87.6641 176.771C89.2214 178.15 90.3732 179.528 90.9409 181.345C91.5087 183.162 91.5574 184.832 90.6652 186.406C89.3836 188.693 87.9561 190.834 87.8912 193.559C87.8263 196.284 89.1565 198.993 91.606 200.274C94.0556 201.556 97.1053 200.875 99.6522 199.934C103.951 198.344 107.861 195.781 110.927 192.375C114.301 188.612 116.783 183.989 117.707 178.993C118.113 176.836 117.107 174.614 114.868 173.997C112.889 173.462 110.278 174.662 109.872 176.836C109.71 177.744 109.499 178.636 109.223 179.512C109.093 179.918 108.964 180.323 108.818 180.712C108.737 180.907 108.672 181.102 108.591 181.296C108.753 180.907 108.558 181.345 108.493 181.491C108.088 182.318 107.666 183.129 107.195 183.908C106.936 184.33 106.66 184.735 106.384 185.141C106.271 185.319 106.141 185.481 106.011 185.66C105.589 186.211 106.303 185.303 105.865 185.838C105.281 186.536 104.665 187.217 104 187.866C103.464 188.385 102.507 189.228 102.167 189.488C101.794 189.763 100.788 190.429 100.123 190.818C99.7658 191.029 99.3926 191.24 99.0195 191.434C98.8735 191.515 97.6082 192.099 98.0624 191.905C97.2189 192.261 96.3429 192.537 95.4507 192.764C95.0776 192.862 94.7694 192.878 94.7369 192.91H94.5098C94.7856 192.975 95.0613 193.04 95.3533 193.121C95.548 193.235 95.6778 193.429 95.8562 193.543C96.3429 193.851 95.4831 193.9 95.9049 193.462C95.9698 193.397 95.9049 194.175 95.986 193.575C96.0671 193.089 95.986 193.64 95.9536 193.705C95.9536 193.754 96.1158 193.17 96.0184 193.381C96.3591 192.651 97.0404 191.58 97.5271 190.737C100.074 186.244 99.8631 181.053 97.6244 176.479C95.3858 171.905 90.8923 168.661 86.3501 166.568C84.3548 165.66 81.9864 166 80.8022 168.028C79.7802 169.78 80.2506 172.651 82.2621 173.575L82.2784 173.543Z" fill="black"/>
<path d="M82.911 173.251C79.3422 179.188 75.7084 185.368 74.1024 192.18C73.3076 195.587 72.8371 199.269 73.632 202.724C74.07 204.621 75.0271 206.292 76.2762 207.768C76.6817 208.255 77.136 208.709 77.574 209.179C77.7037 209.325 78.2066 209.877 78.1904 209.844C78.0444 209.65 78.5635 210.493 78.3851 210.072C79.1962 212.099 81.0942 213.526 83.3815 212.91C85.3119 212.375 87.0314 209.958 86.2203 207.914C85.5714 206.325 84.809 205.076 83.6572 203.778C82.9759 203.016 82.1161 202.318 81.7917 201.588C80.721 199.285 81.4997 196.073 82.0837 193.754C83.5923 187.817 86.8043 182.529 89.9352 177.322C92.628 172.846 85.6201 168.758 82.9272 173.235L82.911 173.251Z" fill="black"/>
<path d="M37.6514 143.454C52.3649 142.156 68.0192 137.534 75.968 124.006C78.6122 119.496 71.6042 115.409 68.96 119.918C62.5685 130.802 49.4287 134.306 37.6514 135.36C35.4777 135.555 33.5959 137.079 33.5959 139.415C33.5959 141.459 35.4615 143.665 37.6514 143.47V143.454Z" fill="black"/>
<path d="M93.2931 198.133C90.0974 202.886 84.2899 205.319 80.3804 209.423C76.0491 213.981 73.048 219.544 70.4687 225.221C64.7423 237.873 58.5455 251.564 61.4817 265.74L64.3205 260.744C58.4157 262.642 53.0462 266.146 49.0718 270.947C47.1251 273.315 45.438 275.846 44.1889 278.652C43.54 280.112 42.9398 281.604 42.5018 283.161C42.1774 284.28 42.2098 286.259 41.6096 287.2L43.0696 285.74C42.3721 286.243 40.8634 286.308 39.9387 286.567C38.5436 286.94 37.2134 287.443 35.8832 288.011C33.2553 289.146 30.2055 290.768 28.5833 293.201C27.6586 294.596 27.3342 296.235 27.8371 297.857C28.2589 299.219 29.2808 300.16 30.0433 301.312C31.1788 303.047 31.7304 305.091 31.8115 307.151C31.8926 309.454 31.5033 311.693 30.7408 313.866C29.6377 316.981 28.1291 319.738 29.7188 323.015C31.9575 327.605 37.0674 327.281 40.7499 329.892C42.2423 330.963 43.4427 332.52 44.1078 334.223C45.0487 336.624 44.2052 339.057 44.9514 341.441C45.876 344.361 48.3742 345.253 51.0671 345.951C53.5491 346.599 55.4957 347.913 57.3288 349.665C60.849 353.006 64.2719 356.867 69.398 357.386C75.2542 357.986 79.9424 353.444 83.6572 349.487C85.7499 347.264 87.1612 344.831 88.5725 342.155C89.773 339.852 90.8923 338.862 93.1958 337.759C97.446 335.732 102.67 334.369 104.795 329.503C105.671 327.492 105.379 325.156 103.335 323.956C101.615 322.95 98.6627 323.388 97.7867 325.415C97.1702 326.827 96.8458 327.119 95.4993 327.897C94.1529 328.676 92.8876 329.13 91.4601 329.73C87.6316 331.336 84.3386 333.282 82.1648 336.964C81.2077 338.586 80.5426 340.387 79.4557 341.944C78.1742 343.761 76.4222 345.302 74.8 346.794C73.7455 347.767 72.4478 349.032 70.9878 349.324C69.6251 349.584 68.3598 348.773 67.2405 347.897C64.1745 345.496 61.871 342.333 58.4806 340.306C56.5664 339.17 54.4575 338.408 52.3 337.905C50.1424 337.402 53.5977 338.23 52.7542 339.316C52.8191 339.235 52.8028 338.424 52.8028 338.246C52.8515 336.916 52.738 335.602 52.4946 334.288C51.7646 330.314 49.4773 326.551 46.3302 324.02C43.7509 321.96 39.809 320.371 37.0837 319.511C35.9968 319.17 37.0999 319.106 36.9701 319.43C36.7106 320.079 37.3594 318.879 37.4405 318.651C37.8623 317.565 38.3652 316.527 38.7059 315.407C39.4359 313.136 39.8252 310.703 39.8901 308.335C39.955 305.967 39.6305 303.372 38.8356 301.085C38.4301 299.933 37.9434 298.765 37.327 297.711C37.1323 297.37 36.9052 297.046 36.6943 296.705C36.3699 296.267 36.0454 295.829 35.7048 295.407C35.2343 294.921 35.1695 294.807 35.5263 295.083V297.24C35.2506 298.197 35.4452 297.467 35.8994 297.224C36.305 296.997 36.6781 296.689 37.0837 296.446C37.8948 295.959 38.7383 295.521 39.6143 295.18C41.6096 294.402 43.7509 294.191 45.73 293.477C50.2235 291.855 49.6882 286.275 51.278 282.545C54.052 276.024 59.7135 270.752 66.4618 268.595C68.6518 267.898 69.7549 265.838 69.3007 263.599C67.9705 257.176 69.3007 250.704 71.296 244.572C73.2913 238.441 75.676 233.056 78.2877 227.525C80.6561 222.513 83.3815 217.598 87.4856 213.802C91.5898 210.007 96.9269 207.217 100.269 202.253C103.189 197.906 96.1645 193.851 93.2607 198.166L93.2931 198.133Z" fill="black"/>
<path d="M78.5311 231.823C81.6944 229.974 84.8739 228.125 88.0534 226.292C89.5296 225.449 91.0058 224.589 92.4821 223.745C93.504 223.161 95.0614 221.799 96.3267 221.766C97.8191 221.734 98.8411 224.41 99.2791 225.53C100.398 228.384 101.08 231.483 101.437 234.532C102.183 240.89 101.729 247.281 101.923 253.672C102.102 259.284 103.205 265.351 107.65 269.211C109.304 270.639 111.754 270.833 113.392 269.211C114.852 267.752 115.047 264.913 113.392 263.469C109.077 259.722 110.002 252.667 110.018 247.557C110.051 240.501 109.969 233.283 108.088 226.438C106.401 220.323 102.491 212.424 94.818 213.818C91.2005 214.484 87.7614 217.079 84.6306 218.895C81.2239 220.858 77.8173 222.837 74.4269 224.816C69.9172 227.444 74.0051 234.451 78.5149 231.823H78.5311Z" fill="black"/>
<path d="M66.6889 267.476C80.867 262.431 98.3382 269.309 102.913 284.264C104.438 289.244 112.273 287.119 110.732 282.107C104.941 263.161 82.9597 253.104 64.5314 259.658C62.4712 260.387 61.0923 262.431 61.6925 264.653C62.2441 266.649 64.6125 268.222 66.6889 267.492V267.476Z" fill="black"/>
<path d="M47.4496 293.12C51.6835 292.034 56.3879 296.511 59.3566 299.025C63.1201 302.204 66.5916 305.74 69.69 309.552C75.7246 316.997 80.1857 325.707 82.911 334.888C84.3872 339.884 92.2225 337.759 90.73 332.731C87.4694 321.75 81.9701 311.612 74.6053 302.836C71.0202 298.57 66.9972 294.694 62.5848 291.271C57.6046 287.395 51.8944 283.599 45.2758 285.302C40.2307 286.6 42.372 294.418 47.4333 293.12H47.4496Z" fill="black"/>
<path d="M29.3458 295.099C20.2776 296.235 11.8259 300.128 5.32086 306.616C3.69865 308.238 2.02778 310.071 0.827347 312.033C-1.00575 315.002 0.30824 318.684 3.34177 320.176C4.57465 320.776 6.09952 320.906 7.0404 321.085C8.22461 321.312 9.37638 321.62 10.5119 322.009C12.6046 322.755 14.5188 324.102 16.4492 325.318C19.0123 326.908 21.6889 328.043 24.69 328.432C27.6911 328.822 30.8706 328.481 33.969 328.043C36.1428 327.735 37.327 324.977 36.8079 323.047C36.1752 320.711 34.0015 319.9 31.8115 320.209C29.9135 320.484 27.1558 320.728 25.3065 320.371C22.9705 319.917 21.1374 318.684 19.061 317.37C16.7574 315.91 14.3079 314.677 11.6961 313.866C10.1713 313.396 8.66261 313.25 7.10529 312.958C7.46217 313.007 7.38106 312.974 6.87818 312.893C7.20262 313.088 7.4784 313.364 7.70551 313.688C7.44595 315.943 7.62439 316.559 8.20839 315.57C8.48416 315.197 8.56527 315.099 8.4355 315.278C10.9824 311.985 14.1619 309.308 17.7956 307.216C19.8072 306.064 21.3483 305.351 23.2949 304.702C24.3494 304.345 25.42 304.037 26.4907 303.777C27.0584 303.648 27.6424 303.518 28.2264 303.404C28.3886 303.372 29.8649 303.145 29.3458 303.21C31.5195 302.934 33.4013 301.539 33.4013 299.154C33.4013 297.176 31.5357 294.824 29.3458 295.099Z" fill="black"/>
<path d="M28.6158 322.658C22.4351 323.907 16.9034 327.784 13.5941 333.153C11.9881 335.764 10.9337 338.716 10.4957 341.749C10.0253 345.01 9.58726 349.795 12.2639 352.244C14.9405 354.693 19.6125 354.985 22.8731 355.229C26.1338 355.472 29.6215 355.131 32.9146 354.483C39.7765 353.12 46.1843 349.908 52.0891 346.259C56.5177 343.517 52.4622 336.51 48.0011 339.251C39.4521 344.523 29.1349 349.146 18.915 346.437C18.5743 346.34 17.4063 345.821 17.0819 345.869C19.4989 345.496 18.0876 348.059 18.3634 346.307C18.5094 345.35 18.2985 344.296 18.4283 343.323C18.7365 340.987 19.6125 338.7 20.9427 336.754C23.23 333.363 26.8475 331.287 30.8057 330.476C32.947 330.038 34.1961 327.492 33.6446 325.48C33.0282 323.242 30.8057 322.204 28.6482 322.642L28.6158 322.658Z" fill="black"/>
<path d="M48.7636 341.344C42.7776 348.173 40.3119 357.564 42.4045 366.421C42.9885 368.87 43.8969 371.303 46.0545 372.795C48.7473 374.661 51.6673 373.509 54.2791 372.228C57.8479 370.492 61.4168 368.675 64.6774 366.388C68.7005 363.582 72.3018 360.176 74.6864 355.829C75.7084 353.963 75.2055 351.32 73.2265 350.281C71.2474 349.243 68.7654 349.746 67.6785 351.741C67.3054 352.406 66.9161 353.071 66.4781 353.704C66.3645 353.866 66.251 354.012 66.1536 354.174C65.7805 354.71 66.4943 353.753 66.105 354.255C65.8292 354.596 65.5372 354.937 65.2452 355.261C64.1908 356.445 63.0066 357.516 61.7737 358.521C61.4168 358.813 61.7737 358.521 61.8386 358.473C61.6277 358.635 61.433 358.781 61.2221 358.927C60.9139 359.154 60.5895 359.381 60.265 359.592C59.5675 360.062 58.8537 360.533 58.1399 360.971C56.6799 361.863 55.1875 362.674 53.6789 363.469C52.1702 364.263 50.7913 364.977 49.3151 365.642L49.1205 365.74C48.8771 365.869 48.8609 365.869 49.088 365.74C49.0556 365.723 50.2722 365.95 49.8667 365.853C50.3371 365.967 50.3858 365.999 50.7264 366.226L50.84 366.388C50.986 366.599 51.0022 366.599 50.8724 366.388C50.8724 366.388 50.6453 365.983 50.6291 365.95C50.6778 366.031 50.8076 366.551 50.7264 366.145C50.6453 365.74 50.4507 365.285 50.3371 364.864C50.1424 364.101 49.9802 363.339 49.8504 362.56C49.964 363.306 49.818 362.09 49.8018 361.879C49.7693 361.425 49.7369 360.971 49.7369 360.5C49.7369 359.706 49.7369 358.927 49.818 358.148C49.8342 357.937 49.9478 356.997 49.8504 357.662C49.9153 357.208 49.9964 356.753 50.0938 356.299C50.2884 355.342 50.548 354.385 50.8562 353.444C51.0022 353.006 51.1644 352.585 51.3267 352.147C51.4889 351.709 51.3267 352.147 51.2942 352.212C51.4078 351.968 51.5051 351.741 51.6187 351.498C52.0404 350.606 52.5271 349.762 53.0786 348.935C53.322 348.546 53.5977 348.173 53.8735 347.8C53.8249 347.865 53.5491 348.205 53.8411 347.848C54.052 347.589 54.2629 347.346 54.4737 347.102C55.8688 345.513 56.1608 342.917 54.4737 341.36C52.9489 339.949 50.2398 339.657 48.7311 341.36L48.7636 341.344Z" fill="black"/>
<path d="M113.376 279.966C137.612 285.902 162.14 289.179 186.976 291.271C211.812 293.364 234.425 295.164 258.142 293.364C271.493 292.342 284.778 290.168 297.594 286.275C302.574 284.767 300.449 276.932 295.436 278.457C273.066 285.253 249.641 286.551 226.395 285.789C214.748 285.399 203.117 284.524 191.502 283.567C179.887 282.61 167.542 281.604 155.635 279.917C142.154 278.003 128.771 275.408 115.534 272.164C110.472 270.915 108.299 278.733 113.376 279.982V279.966Z" fill="black"/>
<path d="M110.197 292.78C150.914 303.047 193.124 307.54 235.09 305.983C246.981 305.545 258.856 304.605 270.665 303.193C272.839 302.934 274.721 301.523 274.721 299.138C274.721 297.143 272.855 294.824 270.665 295.083C229.429 299.998 187.462 299.106 146.518 292.163C135.049 290.217 123.645 287.816 112.37 284.962C107.309 283.68 105.151 291.498 110.213 292.78H110.197Z" fill="black"/>
<path d="M116.426 367.929C126.97 371.806 138.017 373.882 149.097 375.602C160.177 377.321 172.116 379.089 183.65 380.646C206.702 383.76 229.915 386.161 253.194 385.788C266.399 385.577 279.571 384.426 292.581 382.171C294.739 381.798 295.955 379.154 295.42 377.175C294.787 374.888 292.598 373.963 290.424 374.336C245.359 382.138 199.337 375.034 154.613 368.27C142.414 366.421 130.198 364.345 118.583 360.079C116.523 359.316 114.138 360.922 113.587 362.917C112.97 365.188 114.349 367.151 116.426 367.913V367.929Z" fill="black"/>
<path d="M314.173 372.293C314.059 372.487 313.93 372.666 313.8 372.828L314.432 372.001C314.14 372.374 313.816 372.698 313.443 372.974L314.27 372.341C313.881 372.649 313.443 372.893 312.989 373.087L313.962 372.682C313.475 372.893 312.972 373.023 312.453 373.104L313.524 372.958C313.037 373.022 312.534 373.022 312.048 372.958C311.496 372.941 310.961 373.055 310.49 373.314C309.988 373.477 309.55 373.752 309.193 374.158C308.803 374.531 308.511 374.953 308.349 375.456C308.09 375.942 307.976 376.461 307.992 377.013C308.041 378.067 308.382 379.154 309.176 379.884L310.004 380.516C310.636 380.889 311.318 381.068 312.048 381.068C312.956 381.181 313.865 381.052 314.757 380.889C315.649 380.727 316.493 380.37 317.287 379.981C318.082 379.592 318.796 379.04 319.445 378.473C320.094 377.905 320.694 377.126 321.148 376.364C321.44 375.894 321.603 375.391 321.635 374.855C321.749 374.32 321.732 373.785 321.57 373.233C321.44 372.698 321.197 372.244 320.84 371.855C320.548 371.417 320.175 371.06 319.705 370.817C318.764 370.314 317.628 370.07 316.574 370.411C315.519 370.752 314.708 371.352 314.157 372.276L314.173 372.293Z" fill="black"/>
<path d="M118.34 380.062C131.042 382.998 143.776 385.853 156.527 388.578C169.131 391.287 181.785 394.288 194.535 396.267C207.286 398.245 219.955 397.986 232.706 397.937C245.862 397.889 259.034 397.84 272.19 397.791C285.346 397.743 300.011 399.008 312.324 392.876C316.996 390.557 312.891 383.55 308.236 385.869C298.097 390.93 285.59 389.632 274.607 389.681C261.987 389.73 249.349 389.778 236.729 389.811C224.108 389.843 211.244 390.411 198.672 388.74C186.1 387.069 174.517 384.134 162.561 381.587C148.497 378.586 134.481 375.472 120.465 372.228C115.388 371.06 113.214 378.878 118.308 380.046L118.34 380.062Z" fill="black"/>
<path d="M167.655 443.582C176.675 444.214 185.418 447.053 194.422 447.994C203.425 448.934 212.639 449.324 221.74 449.827C240.135 450.865 258.58 451.513 276.992 450.41C287.569 449.778 298.113 448.561 308.528 446.599C310.685 446.193 311.902 443.598 311.366 441.603C310.75 439.348 308.544 438.359 306.37 438.764C288.51 442.106 270.308 443.014 252.172 442.819C234.036 442.625 215.64 441.684 197.488 440.143C187.414 439.283 177.729 436.153 167.655 435.455C165.465 435.309 163.6 437.434 163.6 439.51C163.6 441.83 165.465 443.419 167.655 443.565V443.582Z" fill="black"/>
<path d="M188.225 459.007C204.609 462.917 221.464 463.971 238.254 464.425C253.973 464.863 269.757 465.139 285.346 462.787C294.155 461.457 302.655 459.088 310.831 455.569C312.843 454.709 313.297 451.741 312.291 450.021C311.074 447.945 308.755 447.702 306.743 448.561C293.198 454.401 278.29 456.12 263.674 456.526C248.133 456.947 232.381 456.526 216.889 455.26C207.967 454.531 199.094 453.282 190.382 451.205C185.305 449.989 183.147 457.807 188.225 459.024V459.007Z" fill="black"/>
<path d="M141.976 200.291C152.147 206.681 163.6 210.574 174.923 214.37C186.246 218.166 198.526 221.215 211.001 219.723C235.674 216.771 256.747 201.896 276.489 187.882C282.199 183.827 287.861 179.723 293.392 175.408C298.324 171.564 302.655 167.201 304.748 161.183C305.462 159.107 303.921 156.755 301.909 156.187C299.67 155.571 297.643 156.949 296.913 159.026C295.404 163.357 291.657 166.536 288.136 169.277C283.627 172.813 278.955 176.171 274.299 179.496C264.793 186.309 255.141 193.04 245.018 198.912C234.896 204.784 224.806 209.212 213.58 211.191C208.34 212.115 202.954 212.31 197.666 211.775C191.891 211.191 186.229 209.504 180.73 207.736C168.823 203.908 156.705 199.95 146.047 193.267C141.619 190.477 137.547 197.501 141.959 200.274L141.976 200.291Z" fill="black"/>
<path d="M245.18 191.58L224.854 201.604L228.942 208.612L234.409 205.286C236.128 204.248 236.875 202.075 236.064 200.226C235.188 198.247 233.338 197.565 231.278 197.874C220.49 199.544 209.719 201.215 198.931 202.87C196.758 203.21 195.573 205.919 196.092 207.866C196.741 210.201 198.899 211.012 201.089 210.704C206.913 209.877 212.85 209.861 218.706 210.396L214.796 207.411L214.683 207.071C213.856 209.277 215.624 211.304 217.522 212.067C220.555 213.267 223.816 211.726 225.471 209.114C226.33 207.752 226.119 205.822 225.146 204.605C224.043 203.21 222.583 202.918 220.88 203.145C209.687 204.67 198.136 204.232 187.089 201.913C176.042 199.593 165.644 194.159 154.272 193.332C149.616 192.991 148.902 200.063 153.201 201.296C171.208 206.503 189.701 209.828 208.389 211.304L204.479 206.179C204.431 206.276 203.538 206.633 203.684 206.568C202.078 207.314 201.381 209.536 201.819 211.142C202.338 213.007 203.928 213.883 205.728 214.127C208.048 214.435 210.206 213.851 212.282 212.829C215.526 211.239 214.488 206.325 211.309 205.416C207.351 204.281 203.376 203.145 199.418 202.026C197.504 201.475 195.573 200.923 193.659 200.388L190.593 199.512L189.052 199.074C188.646 198.912 188.874 199.22 189.717 199.999V202.156L189.847 201.702L187.008 204.54C193.886 203.226 201.008 204.135 207.951 204.021C214.894 203.908 222.372 203.162 229.477 201.945C236.583 200.728 243.347 199.155 249.885 196.706C252.999 195.538 255.725 194.013 257.996 191.564C259.375 190.072 260.737 187.817 262.749 187.314C267.843 186.065 265.669 178.409 260.591 179.496C251.458 181.442 242.439 183.778 235.058 189.796C231.424 192.748 236.08 198.441 239.973 196.171C248.895 190.948 258.304 185.319 268.832 184.394L265.961 177.468L255.919 185.757C254.232 187.152 254.476 190.039 255.919 191.499C257.623 193.202 259.926 192.862 261.662 191.499C268.767 185.887 275.873 180.274 282.978 174.662C286.336 172.002 289.726 169.374 293.068 166.698C296.215 164.168 299.119 161.41 301.179 157.906C302.201 156.187 301.731 153.868 300.141 152.667C298.681 151.58 296.069 151.37 294.82 152.992C293.571 154.614 292.403 155.311 290.472 155.652L294.414 162.432C304.018 151.97 313.735 141.021 317.936 127.152H310.117C314.027 142.059 316.85 157.209 318.455 172.537L325.382 169.666C317.288 162.773 306.305 157.598 296.053 163.308C293.198 164.897 293.506 170.12 297.026 170.721C304.326 171.953 306.078 164.914 307.538 159.415C309.095 153.527 311.804 147.866 315.552 143.032L308.771 139.091C306.192 149.066 309.03 159.82 316.217 167.201L321.132 160.826C318.018 159.285 314.935 157.679 311.788 156.203C308.641 154.727 304.488 154.095 302.315 157.663C300.368 160.875 301.941 164.995 305.77 165.579C309.241 166.114 312.194 163.876 313.264 160.68C314.919 155.717 307.1 153.592 305.445 158.523C305.575 158.117 306.419 157.404 306.905 157.55L308.69 158.588L308.43 158.247L309.468 160.031L308.738 162.513L306.694 163.065C308.154 162.87 309.971 164.314 311.269 164.962C313.183 165.903 315.098 166.86 317.012 167.801C321.035 169.796 325.269 164.865 321.927 161.426C316.752 156.122 314.708 148.369 316.574 141.199C317.028 139.464 316.282 137.533 314.708 136.625C313.297 135.798 310.88 135.863 309.793 137.258C306.256 141.816 303.45 146.649 301.374 152.035C300.384 154.597 299.687 157.209 299.07 159.869C298.875 160.68 298.697 161.572 298.356 162.286C297.707 163.648 297.789 162.627 299.167 162.87L300.141 170.283C306.889 166.52 314.465 170.964 319.64 175.376C320.889 176.446 322.495 176.917 324.068 176.219C325.415 175.619 326.729 174.111 326.567 172.521C324.863 156.479 322.024 140.583 317.936 124.979C316.898 121.021 311.253 121.232 310.117 124.979C306.338 137.452 297.302 147.282 288.688 156.674C285.833 159.788 288.688 164.168 292.63 163.454C295.712 162.902 298.632 161.183 300.563 158.701L294.187 153.786C292.37 156.868 289.596 159.155 286.822 161.361C283.432 164.054 280.025 166.73 276.635 169.407L255.952 185.741L261.694 191.483L271.736 183.194C274.38 181.021 272.271 175.976 268.865 176.268C256.763 177.339 246.202 183.129 235.901 189.147L240.817 195.522C246.965 190.51 255.222 188.92 262.765 187.314L260.608 179.496C254.979 180.875 252.951 186.876 247.743 188.888C241.238 191.402 234.182 192.943 227.336 194.127C220.49 195.311 213.434 195.895 206.442 195.943C199.45 195.992 192.037 195.376 184.867 196.738C183.504 196.998 182.385 198.295 182.028 199.577C180.227 206.13 188.646 207.411 193.059 208.66C198.428 210.201 203.798 211.726 209.184 213.267L208.21 205.854C207.399 206.243 206.621 206.146 205.745 206.049L207.789 213.608C210.06 212.553 211.406 210.639 212.298 208.385C213.353 205.741 210.725 203.437 208.389 203.259C190.431 201.831 172.668 198.539 155.359 193.527L154.288 201.491C159.755 201.88 164.995 203.778 170.153 205.546C175.75 207.46 181.379 209.131 187.186 210.217C199.077 212.44 211.082 212.651 223.053 211.012L218.479 205.059C218.722 204.67 219.063 204.492 219.533 204.557C220.296 204.557 220.344 204.459 219.696 204.297L222.534 209.293C223.037 207.947 222.972 206.681 222.648 205.319C222.21 203.47 220.474 202.497 218.738 202.334C212.104 201.734 205.55 202.01 198.964 202.934L201.121 210.753C211.909 209.082 222.68 207.411 233.468 205.757L230.337 198.344L224.87 201.669C220.361 204.411 224.319 210.964 228.958 208.677C235.739 205.335 242.504 201.994 249.285 198.652C251.247 197.679 251.783 194.905 250.745 193.105C249.577 191.11 247.159 190.672 245.197 191.645L245.18 191.58Z" fill="black"/>
<path d="M308.414 168.888C313.638 168.888 313.638 160.777 308.414 160.777C303.191 160.777 303.191 168.888 308.414 168.888Z" fill="black"/>
<path d="M294.609 173.64C298.583 171.24 302.834 170.202 307.473 170.429C309.598 170.542 311.886 171.094 314.173 171.905C316.947 172.878 319.575 173.819 322.543 173.997C324.733 174.127 326.599 172.034 326.599 169.942C326.599 167.639 324.733 166.017 322.543 165.887C319.899 165.725 317.32 164.346 314.789 163.567C312.259 162.789 309.29 162.335 306.516 162.302C300.919 162.237 295.323 163.778 290.537 166.649C288.656 167.785 287.974 170.283 289.077 172.197C290.18 174.111 292.744 174.792 294.625 173.657L294.609 173.64Z" fill="black"/>
<path d="M325.853 178.831C312.843 173.04 298.519 176.771 286.774 183.811C280.837 187.363 275.402 191.645 269.838 195.733C264.274 199.82 258.142 203.697 251.767 206.844C245.391 209.99 238.481 212.748 231.716 215.392C224.951 218.036 218.138 220.712 210.903 221.799C203.668 222.886 196.092 222.545 188.744 222.156C181.395 221.766 174.03 221.556 167.006 219.447C159.982 217.338 153.623 213.235 147.442 209.277C144.36 207.314 141.278 205.335 138.082 203.535C134.887 201.734 130.62 199.626 127.197 202.205C125.445 203.518 124.553 205.708 125.737 207.752C126.743 209.471 129.517 210.526 131.285 209.212C132.08 208.612 131.285 209.309 131.107 209.114C131.026 209.017 132.615 210.769 131.366 209.212C131.577 209.488 132.469 209.715 132.794 209.877C134.205 210.639 135.584 211.434 136.947 212.261C139.786 213.981 142.576 215.797 145.366 217.565C150.93 221.101 156.657 224.427 162.902 226.633C169.699 229.017 176.967 229.585 184.104 230.006C191.242 230.428 198.85 230.915 206.215 230.396C220.669 229.39 234.182 223.389 247.354 217.744C253.875 214.954 260.299 211.84 266.285 208.028C272.271 204.216 277.333 200.128 282.848 196.154C293.522 188.482 308.317 179.869 321.765 185.838C323.76 186.73 326.129 186.422 327.313 184.378C328.319 182.643 327.864 179.723 325.853 178.831Z" fill="black"/>
<path d="M244.191 42.3355C238.724 42.6599 233.841 44.8983 229.104 47.5098C223.865 50.4133 218.755 52.9599 213.158 55.101C207.561 57.2421 202.711 59.7725 198.38 63.8439C196.303 65.8065 194.276 67.8828 192.41 70.0401C190.772 71.9217 189.02 74.1763 188.452 76.658C187.835 79.3344 190.09 80.3887 192.264 81.0376C195.152 81.8972 198.169 82.2379 201.137 82.5461C207.918 83.2436 214.748 83.5031 221.561 83.568C228.374 83.6328 234.944 83.4869 241.628 83.3247C244.824 83.2435 248.019 83.1949 251.183 82.8218C253.762 82.5136 254.979 81.0213 254.33 78.4423C253.567 75.4253 251.507 73.0246 249.982 70.3969C248.457 67.7692 247.549 65.109 246.64 62.3353C244.84 56.8528 243.136 51.3379 239.211 46.9421C237.459 44.9956 234.604 47.8667 236.339 49.8131C242.309 56.4797 242.552 66.3742 247.305 73.8032C247.889 74.7116 248.506 75.6037 249.057 76.5283C249.382 77.0798 249.706 77.6313 249.966 78.2152L250.225 78.9127C250.274 79.6264 250.404 79.7237 250.599 79.1722C251.637 78.6045 249.268 78.9613 249.268 78.9613C248.636 79.01 248.003 79.0587 247.37 79.0911C245.846 79.1722 244.321 79.2047 242.796 79.2533C237.053 79.3831 231.294 79.5291 225.552 79.5291C219.809 79.5291 214.31 79.448 208.713 79.1073C205.793 78.9289 202.889 78.7018 199.986 78.3774C199.515 78.3287 191.842 76.95 191.972 76.6905L192.394 77.5502L192.605 76.9338C192.978 76.5607 193.286 75.5875 193.594 75.1171C194.211 74.1439 194.941 73.2842 195.703 72.4245C197.39 70.5429 199.142 68.71 200.975 66.9582C204.852 63.2599 209.232 60.9079 214.212 59.0101C219.193 57.1124 224.27 54.8739 229.088 52.1489C233.906 49.4238 238.643 46.715 244.158 46.3906C246.754 46.2284 246.77 42.1733 244.158 42.3355H244.191Z" fill="black"/>
<path d="M124.877 48.7912C130.474 51.3703 136.022 54.3873 140.126 59.0912C144.23 63.7952 146.631 69.6832 149.032 75.3441L151.319 72.3596C145.69 71.1917 139.964 70.6889 134.221 70.4456C128.852 70.2185 122.85 69.4561 117.675 71.2728C115.225 72.1325 116.28 76.0578 118.746 75.1819C123.547 73.495 129.209 74.2898 134.205 74.5007C139.591 74.7278 144.944 75.1657 150.233 76.2687C152.098 76.658 153.201 74.9062 152.52 73.2841C149.973 67.2663 147.329 61.1999 142.981 56.2202C138.634 51.2405 132.81 48.0126 126.905 45.2876C124.553 44.2008 122.493 47.6882 124.861 48.7912H124.877Z" fill="black"/>
<path d="M130.215 48.921C126.808 51.5 124.796 55.0686 124.034 59.2697C123.677 61.2648 123.515 63.2923 123.401 65.3037C123.272 67.461 123.174 69.6508 123.888 71.727C124.245 72.7651 125.283 73.4464 126.386 73.1382C127.392 72.8624 128.171 71.6783 127.797 70.6402C127.213 68.9533 127.343 67.2339 127.441 65.4821C127.538 63.8925 127.619 62.2704 127.879 60.6971C128.414 57.5178 129.614 54.436 132.259 52.4246C133.135 51.7596 133.589 50.6728 132.989 49.6509C132.486 48.7912 131.091 48.2559 130.215 48.921Z" fill="black"/>
<path d="M205.891 59.3832C205.209 62.822 204.771 66.4716 206.053 69.8292C206.637 71.3539 207.432 72.7651 208.373 74.0952C209.313 75.4253 210.254 76.8202 211.406 77.8746C214.18 80.3725 217.7 77.761 219.436 75.3442C221.172 72.9273 221.853 69.9914 222.259 67.1528C222.81 63.341 222.729 59.4157 221.285 55.7985C220.88 54.7766 219.923 54.0629 218.787 54.3873C217.814 54.6468 216.97 55.8634 217.376 56.8853C218.592 59.9347 218.771 63.2112 218.3 66.4391C217.911 69.0182 217.295 72.0839 215.332 73.9654C215.17 74.1114 213.953 74.8738 213.953 74.8576C213.953 74.6467 214.521 75.4415 214.083 74.8089C213.888 74.5169 213.612 74.2574 213.385 73.9817C212.379 72.7651 211.422 71.5161 210.644 70.1374C208.924 67.0717 209.119 63.7952 209.784 60.4538C209.995 59.3832 209.476 58.264 208.373 57.9558C207.367 57.6801 206.101 58.2964 205.874 59.367L205.891 59.3832Z" fill="black"/>
<path d="M211.325 59.1237C211.568 59.7238 211.763 60.324 211.893 60.9404C211.958 61.2486 212.022 61.573 212.071 61.8812C212.136 62.2867 212.022 61.4432 212.071 61.8812C212.087 62.0434 212.104 62.2056 212.12 62.3678C212.233 63.633 212.217 64.8982 212.185 66.1634L215.964 65.1415C215.851 64.9144 215.737 64.7035 215.624 64.4764C215.591 64.4115 215.478 64.2493 215.478 64.1682C215.591 64.4278 215.608 64.4764 215.559 64.3467C215.526 64.2818 215.51 64.2169 215.494 64.152C215.413 63.9412 215.364 63.7141 215.316 63.5032C215.316 63.9412 215.202 63.0653 215.316 63.5032C215.316 63.3897 215.316 63.2761 215.316 63.1464C215.316 61.9785 215.445 60.8917 215.202 59.7401C214.991 58.7506 213.904 58.1667 212.98 58.2802C211.958 58.41 211.276 59.2534 211.228 60.2753C211.163 61.5081 211.163 62.7246 211.374 63.9412C211.649 65.6119 212.704 67.8178 214.796 67.2177C215.818 66.9257 216.548 65.7741 216.208 64.7197C215.867 63.6654 214.813 62.9841 213.71 63.3086H213.628C213.985 63.3248 214.342 63.3248 214.699 63.3248L215.364 63.7141C215.559 63.9898 215.624 64.0547 215.543 63.8925C215.413 63.6654 215.672 64.2656 215.591 64.0223C215.526 63.8438 215.462 63.6654 215.413 63.4708C215.364 63.2599 215.316 63.049 215.283 62.8382C215.234 62.5462 215.332 62.9355 215.299 63.0004C215.332 62.9355 215.267 62.7408 215.267 62.676C215.202 61.8649 215.234 61.0539 215.267 60.2429L211.276 60.7782C211.374 61.2486 211.26 60.3078 211.276 60.7782C211.276 60.9241 211.292 61.0539 211.292 61.1999C211.292 61.427 211.293 61.6703 211.276 61.8974C211.244 62.4326 211.211 62.9841 211.244 63.5194C211.357 64.8495 211.844 65.9849 212.444 67.1528C212.834 67.9152 213.92 68.3531 214.732 68.0774C215.608 67.8016 216.192 67.0393 216.224 66.1147C216.321 63.3897 216.256 60.5511 215.218 57.9882C215.007 57.4854 214.78 57.0637 214.294 56.7717C213.856 56.5122 213.223 56.4148 212.736 56.5608C212.25 56.7068 211.779 57.0312 211.52 57.4854C211.26 57.9396 211.114 58.556 211.309 59.0426L211.325 59.1237Z" fill="black"/>
<path d="M139.461 60.324V60.4051C139.461 60.2267 139.429 60.0483 139.396 59.8698C139.396 59.9834 139.396 60.0807 139.396 60.1942L139.461 59.659C139.38 60.2105 139.218 60.7457 139.121 61.2972C138.991 61.9947 138.91 62.7084 138.829 63.4221L142.608 62.4002C142.608 62.4002 142.527 62.2867 142.511 62.2218L142.722 62.7084C142.673 62.5949 142.657 62.4813 142.641 62.3678L142.706 62.9031C142.641 62.2705 142.738 61.6054 142.819 60.9728L142.754 61.5081C142.852 60.7782 143.014 60.0807 143.273 59.3994C143.452 58.929 143.306 58.2478 143.062 57.8423C142.819 57.4368 142.332 57.015 141.846 56.9177C141.327 56.8042 140.743 56.8204 140.288 57.1286C139.834 57.4368 139.559 57.826 139.364 58.3451C139.007 59.3021 138.861 60.2916 138.747 61.2972C138.634 62.3029 138.488 63.5681 139.137 64.4602C139.396 64.8333 139.672 65.109 140.11 65.2875C140.516 65.4497 141.002 65.5308 141.424 65.3848C141.765 65.2713 142.057 65.109 142.316 64.8657C142.722 64.4927 142.852 63.9574 142.916 63.4383C142.949 63.1788 142.965 62.9193 143.014 62.6598L142.949 63.195C143.014 62.676 143.111 62.1731 143.208 61.6541C143.257 61.4108 143.322 61.1837 143.371 60.9404C143.5 60.3402 143.5 59.8536 143.387 59.2534C143.29 58.7831 142.852 58.2802 142.462 58.0369C142.024 57.7774 141.392 57.6801 140.905 57.826C140.418 57.972 139.948 58.2964 139.688 58.7506C139.429 59.2534 139.38 59.7563 139.477 60.3078L139.461 60.324Z" fill="black"/>
<path d="M133.719 54.7441C132.778 57.8585 132.34 61.1512 132.551 64.3953C132.713 67.1042 133.086 70.186 134.968 72.2947C137.125 74.7278 140.71 74.4683 143.176 72.6516C145.642 70.8349 147.67 68.0449 147.734 64.8657C147.783 62.2542 143.728 62.2542 143.679 64.8657C143.646 66.5851 142.3 68.2882 140.905 69.3101C140.256 69.7967 139.396 70.2509 138.585 69.9914C138.326 69.9103 138.245 69.8616 137.985 69.5859C137.823 69.4237 137.628 69.1155 137.45 68.7262C136.72 67.2177 136.574 64.7197 136.574 62.8544C136.574 60.4537 136.947 58.118 137.644 55.8147C138.407 53.3167 134.497 52.2462 133.735 54.7441H133.719Z" fill="black"/>
<path d="M224.611 88.791C225.779 88.7098 226.833 89.0829 228.017 89.4398C229.104 89.748 230.175 90.0724 231.246 90.4292C233.436 91.1591 235.334 91.9539 237.296 93.2191C238.221 93.8193 239.535 93.4138 240.07 92.4892C240.638 91.4998 240.265 90.3157 239.34 89.7155C237.167 88.3206 234.766 87.3311 232.316 86.5201C231.165 86.1308 230.013 85.7902 228.845 85.4657C227.466 85.0602 226.038 84.6547 224.578 84.752C223.491 84.8331 222.551 85.628 222.551 86.7796C222.551 87.8177 223.475 88.8883 224.578 88.8072L224.611 88.791Z" fill="black"/>
<path d="M85.7012 105.806C88.4103 107.672 90.1623 110.478 91.6061 113.381C93.0498 116.285 94.4449 118.523 97.6893 116.366C103.075 112.781 109.369 111.97 115.712 112.181C119.297 112.294 122.639 112.667 125.656 114.76C128.122 116.479 130.02 118.312 132.632 115.749C135.033 113.414 137.271 111.175 140.11 109.359C142.949 107.542 145.869 106.179 149 105.174C151.482 104.379 150.411 100.453 147.929 101.264C142.008 103.162 136.574 106.293 132.031 110.575C131.48 111.094 130.945 111.629 130.425 112.181C130.198 112.408 129.987 112.651 129.76 112.895C130.247 113.154 130.15 113.057 129.452 112.586C128.187 111.5 126.743 110.526 125.218 109.829C122.347 108.515 119.135 108.256 116.02 108.142C110.018 107.915 103.789 108.531 98.3545 111.256C97.6893 111.581 97.0405 111.954 96.424 112.343C96.1482 112.505 95.8887 112.684 95.6291 112.878C94.8505 113.333 94.9478 113.397 95.9049 113.073C96.1807 112.7 94.2016 109.65 93.8772 109.099C92.2874 106.406 90.3083 104.103 87.729 102.319C85.5715 100.827 83.5437 104.346 85.685 105.822L85.7012 105.806Z" fill="black"/>
<path d="M275.159 29.1158C275.483 29.0184 301.147 15.0039 302.655 17.4532C304.164 19.9025 302.331 60.6646 298.583 58.5235C294.836 56.3824 269.708 30.7216 275.159 29.1158Z" fill="#121023"/>
<path d="M162.48 14.3389C153.347 17.1126 144.166 20.0485 135.844 24.8174C132.048 26.9909 128.43 29.57 125.218 32.5545C121.763 35.7824 119.119 39.6104 116.588 43.5682C115.177 45.7742 118.681 47.8018 120.092 45.612C122.444 41.93 124.878 38.4101 128.089 35.4256C131.301 32.441 134.773 30.0728 138.52 27.9804C146.372 23.5846 155.002 20.8596 163.567 18.2643C166.065 17.5019 164.995 13.5928 162.497 14.3551L162.48 14.3389Z" fill="black"/>
<path d="M169.926 55.6525C167.882 58.4586 166.325 61.6054 165.319 64.9144C164.8 66.6175 164.443 68.4829 164.995 70.2347C165.465 71.7108 166.552 72.8624 167.12 74.2412C167.525 75.2468 168.466 75.9768 169.618 75.6524C170.575 75.3928 171.451 74.1763 171.029 73.1544C170.721 72.4245 170.397 71.7432 169.975 71.062C169.618 70.478 169.18 69.9103 168.937 69.2615C168.515 68.1585 168.969 66.8122 169.326 65.7092C170.234 62.8219 171.662 60.1456 173.43 57.6963C174.079 56.8041 173.576 55.4416 172.7 54.9226C171.678 54.3224 170.575 54.7604 169.926 55.6525Z" fill="black"/>
<path d="M169.65 12.4898C168.531 12.4411 167.428 12.7007 166.39 13.1062C165.854 13.317 165.319 13.5603 164.784 13.8037C164.605 13.8848 164.411 13.9659 164.232 14.047C164.005 14.1443 163.973 14.1605 164.135 14.0956C164.005 14.1443 163.875 14.2092 163.746 14.2578C161.864 15.004 159.901 15.5392 157.889 15.8637C156.835 16.0259 156.154 17.3884 156.478 18.3616C156.851 19.497 157.841 19.9512 158.976 19.7728C160.907 19.4646 162.805 18.9618 164.638 18.2481C165.644 17.8588 166.601 17.3884 167.59 16.9829C167.266 17.1126 167.866 16.8855 167.866 16.8855C168.126 16.7882 168.369 16.7071 168.628 16.6422C168.71 16.626 169.261 16.5287 168.872 16.5774C169.131 16.5449 169.407 16.5449 169.667 16.5774C170.721 16.626 171.743 15.6041 171.694 14.5498C171.646 13.4144 170.802 12.5709 169.667 12.5222L169.65 12.4898Z" fill="black"/>
<path d="M88.5076 480.775C77.8173 485.057 67.6947 490.556 58.4481 497.434C53.8573 500.856 49.4936 504.522 45.3569 508.48C43.2156 510.524 41.123 512.616 38.8032 514.465C36.4835 516.314 34.261 517.904 33.1579 520.726C32.0548 523.549 32.4117 526.728 34.4881 528.966C36.6781 531.334 40.1496 531.562 43.1507 531.724C49.3962 532.048 55.7391 531.772 61.9846 531.497C74.6864 530.961 87.3559 529.664 99.928 527.717C103.562 527.15 107.195 526.533 110.813 525.836C113.96 525.236 117.204 524.749 120.189 523.549C126.208 521.116 129.825 515.811 133.037 510.426C135.714 505.933 128.706 501.846 126.029 506.339C123.92 509.875 121.633 514.027 117.707 515.844C115.631 516.801 113.214 517.125 110.975 517.563C108.136 518.115 105.297 518.65 102.442 519.121C91.525 520.97 80.5102 522.251 69.4629 522.965C63.8176 523.338 58.1724 523.565 52.5271 523.646C49.9153 523.678 47.3036 523.711 44.6918 523.646C43.4589 523.614 42.0801 523.322 40.8472 523.403C40.7499 523.403 40.2794 523.159 40.247 523.24C40.2145 523.322 40.8472 523.906 40.6039 523.954C40.5714 523.954 41.7719 522.381 41.9178 522.235C42.7452 521.505 43.6698 520.872 44.5296 520.175C46.7358 518.391 48.7636 516.412 50.8075 514.449C54.3602 511.059 58.0426 507.799 61.9683 504.83C70.7607 498.212 80.4291 492.665 90.649 488.561C92.6767 487.75 94.1043 485.852 93.4878 483.565C92.9525 481.635 90.5516 479.916 88.4914 480.727L88.5076 480.775Z" fill="black"/>
<path d="M121.39 512.567C116.767 517.19 112.37 524.035 112.159 530.767C111.916 538.52 119.281 542.851 126.321 542.072C130.02 541.651 133.54 540.418 137.044 539.218C140.548 538.017 144.295 536.606 147.848 535.13C151.19 533.735 154.531 532.308 157.776 530.686C160.68 529.242 163.437 527.328 164.978 524.376C167.396 519.753 160.404 515.649 157.971 520.288C157.013 522.105 155.213 522.932 153.412 523.808C150.946 525.008 148.432 526.144 145.901 527.214C140.629 529.437 135.227 531.416 129.744 533.054C127.181 533.816 119.946 535.617 120.254 530.767C120.562 525.917 123.969 521.424 127.1 518.293C130.799 514.595 125.056 508.869 121.357 512.551L121.39 512.567Z" fill="black"/>
<path d="M201.089 501.213C205.469 502.138 209.313 504.571 212.006 508.155C213.223 509.761 214.212 511.627 214.813 513.557C215.494 515.698 215.51 517.401 215.64 519.575C215.721 520.807 215.202 519.721 215.77 519.607C215.916 519.575 214.975 519.737 214.91 519.753C213.645 519.883 212.331 519.769 211.065 519.737C207.902 519.64 204.723 519.396 201.575 518.926C195.265 518.001 189.084 516.379 183.099 514.173C181.038 513.411 178.654 515.017 178.102 517.012C177.486 519.283 178.865 521.245 180.941 522.008C186.586 524.084 192.426 525.641 198.363 526.598C204.301 527.555 210.611 528.528 216.467 527.701C219.436 527.279 221.999 525.674 223.102 522.803C224.075 520.256 223.816 517.401 223.41 514.773C222.664 509.972 220.344 505.528 217.23 501.862C213.661 497.661 208.632 494.579 203.23 493.443C201.089 492.989 198.85 494.076 198.234 496.282C197.682 498.293 198.915 500.808 201.073 501.278L201.089 501.213Z" fill="black"/>
<path d="M441.63 447.264C443.349 466.355 441.922 485.544 443.025 504.668C443.333 509.859 451.444 509.891 451.136 504.668C450.033 485.544 451.46 466.355 449.741 447.264C449.546 445.09 448.021 443.209 445.685 443.209C443.641 443.209 441.435 445.074 441.63 447.264Z" fill="black"/>
<path d="M201.867 17.8101C212.055 14.1767 222.713 12.4898 233.5 12.3438C238.967 12.2789 244.418 12.5709 249.852 13.1548C255.287 13.7388 260.737 15.1013 266.204 14.42C271.671 13.7388 276.165 10.9488 281.307 9.61876C286.449 8.28868 291.981 8.11025 297.367 8.11025C299.395 8.11025 301.844 7.73718 303.71 8.64553C305.575 9.55387 307.587 11.8085 308.82 13.4792C310.052 15.1499 309.89 17.4695 309.89 19.5133C309.89 22.5789 309.696 25.6284 309.533 28.6778C309.193 35.2309 309.533 41.5569 310.426 48.0613C311.237 54.0791 312.226 60.3078 311.188 66.358C310.815 68.5153 311.756 70.7213 314.027 71.3539C315.974 71.8892 318.634 70.6889 319.023 68.5153C321.116 56.3824 317.093 44.4279 317.498 32.2626C317.693 26.1637 318.91 19.4322 317.579 13.3981C316.963 10.6731 315.341 8.49954 313.475 6.47198C311.61 4.44442 309.696 2.49796 307.278 1.34631C304.618 0.0648897 301.812 7.80738e-06 298.908 7.80738e-06C295.647 -0.0162127 292.37 7.80398e-06 289.11 0.259536C283.27 0.713709 277.835 1.97891 272.401 4.16867C270.179 5.0608 267.875 6.05025 265.49 6.4071C262.408 6.87749 259.18 6.27734 256.114 5.83938C250.339 5.02836 244.548 4.44442 238.724 4.28222C225.535 3.90915 212.185 5.54741 199.726 9.99183C197.666 10.7217 196.287 12.7493 196.887 14.9877C197.439 16.9829 199.807 18.5562 201.884 17.8263L201.867 17.8101Z" fill="black"/>
<path d="M453.661 77.3605C454.958 70.0937 446.393 62.4865 434.53 60.3694C422.668 58.2523 412 62.4269 410.702 69.6937C409.405 76.9605 417.97 84.5677 429.833 86.6848C441.696 88.802 452.364 84.6273 453.661 77.3605Z" fill="black"/>
<path d="M56.9365 125.873C64.8583 121.3 69.4064 114.347 67.0949 110.344C64.7835 106.341 56.4877 106.803 48.5659 111.376C40.6441 115.949 36.096 122.902 38.4074 126.905C40.7189 130.908 49.0146 130.446 56.9365 125.873Z" fill="black"/>
</g>
<defs>
<clipPath id="clip0_1_6">
<rect width="554" height="575" fill="white"/>
</clipPath>
</defs>
</svg>
